<svg width="129" height="8" viewBox="0 0 129 8" fill="none" xmlns="http://www.w3.org/2000/svg">
<g opacity="0.3">
<path d="M2.34861 5.74988C2.03457 5.74988 1.74016 5.69536 1.46537 5.58632C1.19495 5.47292 0.955061 5.31153 0.745701 5.10218C0.540704 4.88845 0.377142 4.62021 0.255016 4.29745C0.137251 3.97033 0.0783691 3.60395 0.0783691 3.19832C0.0783691 2.80141 0.139432 2.43939 0.261558 2.11226C0.383685 1.78078 0.549427 1.506 0.758786 1.28791C0.972507 1.06983 1.21894 0.901907 1.49809 0.784143C1.77723 0.666378 2.07382 0.607496 2.38786 0.607496C2.80658 0.607496 3.19259 0.736165 3.54588 0.993502C3.64184 1.05893 3.68981 1.15488 3.68981 1.28137C3.68981 1.37733 3.6571 1.46456 3.59168 1.54307L3.56551 1.57578C3.50008 1.65429 3.41285 1.69791 3.30381 1.70663C3.29072 1.70663 3.27764 1.70663 3.26455 1.70663C3.17296 1.70663 3.09009 1.68264 3.01594 1.63466C2.82403 1.5169 2.62121 1.45802 2.40749 1.45802C2.02366 1.45802 1.70745 1.61286 1.45883 1.92253C1.21458 2.22785 1.09245 2.64221 1.09245 3.1656C1.09245 3.70209 1.20804 4.12517 1.4392 4.43484C1.67473 4.74016 1.99095 4.89282 2.38786 4.89282C2.64956 4.89282 2.89381 4.81431 3.12062 4.65729C3.19477 4.60495 3.27982 4.57878 3.37578 4.57878C3.3845 4.57878 3.39322 4.57878 3.40195 4.57878C3.50663 4.58314 3.59168 4.62457 3.6571 4.70308L3.68327 4.72925C3.75306 4.80776 3.78795 4.89936 3.78795 5.00404C3.78795 5.12616 3.74434 5.22212 3.6571 5.29191C3.29072 5.59722 2.85456 5.74988 2.34861 5.74988Z" fill="#313131"/>
<path d="M6.6881 5.61903C6.47438 5.70626 6.24757 5.74988 6.00768 5.74988C5.77215 5.74988 5.54535 5.70626 5.32726 5.61903C5.11354 5.52744 4.92381 5.40095 4.75807 5.23957C4.59233 5.07382 4.4593 4.86665 4.35898 4.61803C4.25866 4.36506 4.2085 4.08809 4.2085 3.78714C4.2085 3.48618 4.25866 3.20922 4.35898 2.95624C4.4593 2.70327 4.59233 2.49391 4.75807 2.32817C4.92381 2.16242 5.11354 2.03594 5.32726 1.9487C5.54535 1.85711 5.77215 1.81131 6.00768 1.81131C6.24757 1.81131 6.47438 1.85711 6.6881 1.9487C6.90618 2.03594 7.09809 2.16242 7.26384 2.32817C7.42958 2.49391 7.56261 2.70327 7.66293 2.95624C7.76325 3.20922 7.8134 3.48618 7.8134 3.78714C7.8134 4.08809 7.76325 4.36506 7.66293 4.61803C7.56261 4.86665 7.42958 5.07382 7.26384 5.23957C7.09809 5.40095 6.90618 5.52744 6.6881 5.61903ZM5.4254 4.63766C5.56497 4.84266 5.75907 4.94516 6.00768 4.94516C6.26066 4.94516 6.45693 4.84266 6.5965 4.63766C6.73608 4.4283 6.80586 4.14479 6.80586 3.78714C6.80586 3.42948 6.73608 3.14598 6.5965 2.93662C6.45693 2.7229 6.26066 2.61604 6.00768 2.61604C5.75907 2.61604 5.56497 2.7229 5.4254 2.93662C5.28583 3.14598 5.21604 3.42948 5.21604 3.78714C5.21604 4.14479 5.28583 4.4283 5.4254 4.63766Z" fill="#313131"/>
<path d="M8.82278 7.11071C8.71374 7.11071 8.62214 7.07364 8.54799 6.99949C8.47385 6.92534 8.43677 6.83375 8.43677 6.72471V2.30854C8.43677 2.1995 8.47385 2.1079 8.54799 2.03376C8.62214 1.95961 8.71374 1.92253 8.82278 1.92253H8.8882C8.98852 1.92253 9.07793 1.95525 9.15644 2.02067C9.23495 2.08609 9.28293 2.16897 9.30038 2.26928L9.30692 2.29545C9.30692 2.30418 9.31128 2.30854 9.32 2.30854C9.32873 2.30854 9.33745 2.30636 9.34618 2.302C9.72128 1.98796 10.0855 1.83094 10.4388 1.83094C10.8967 1.83094 11.2566 2.00322 11.5183 2.34779C11.78 2.69236 11.9108 3.1547 11.9108 3.7348C11.9108 4.04884 11.8672 4.33671 11.78 4.5984C11.6927 4.85574 11.575 5.06946 11.4267 5.23957C11.2784 5.40531 11.1083 5.53616 10.9164 5.63212C10.7245 5.72371 10.526 5.76951 10.321 5.76951C10.0113 5.76951 9.71255 5.64302 9.42468 5.39004C9.41596 5.38568 9.40724 5.38568 9.39851 5.39004C9.39415 5.39441 9.39197 5.40095 9.39197 5.40967L9.4116 5.97232V6.72471C9.4116 6.83375 9.37453 6.92534 9.30038 6.99949C9.22623 7.07364 9.13463 7.11071 9.02559 7.11071H8.82278ZM10.0986 4.95824C10.3385 4.95824 10.5325 4.85574 10.6808 4.65074C10.8291 4.44575 10.9033 4.14479 10.9033 3.74788C10.9033 3.0064 10.6547 2.63566 10.1574 2.63566C9.93064 2.63566 9.69511 2.75561 9.45085 2.9955C9.42468 3.01731 9.4116 3.04348 9.4116 3.07401V4.62457C9.4116 4.65947 9.42468 4.68782 9.45085 4.70963C9.66021 4.87537 9.87611 4.95824 10.0986 4.95824Z" fill="#313131"/>
<path d="M12.8221 7.18268C12.7741 7.18268 12.7283 7.1805 12.6847 7.17614C12.58 7.17178 12.4993 7.1238 12.4426 7.0322C12.4033 6.96678 12.3837 6.89917 12.3837 6.82939C12.3837 6.79886 12.3881 6.76614 12.3968 6.73125V6.72471C12.4404 6.54152 12.5974 6.4303 12.8679 6.39104C13.147 6.34743 13.3411 6.15987 13.4501 5.82839L13.5025 5.65174C13.5156 5.62121 13.5156 5.59068 13.5025 5.56015L12.2005 2.28237C12.1874 2.24748 12.1809 2.21476 12.1809 2.18423C12.1809 2.13189 12.1962 2.08391 12.2267 2.0403C12.279 1.96179 12.351 1.92253 12.4426 1.92253H12.665C12.7784 1.92253 12.8809 1.95743 12.9725 2.02721C13.0685 2.09264 13.1361 2.17987 13.1754 2.28891L13.6464 3.66283C13.6595 3.69772 13.762 4.04666 13.9539 4.70963C13.9583 4.71835 13.9648 4.72271 13.9735 4.72271C13.9866 4.72271 13.9953 4.71835 13.9997 4.70963C14.0259 4.59622 14.0695 4.42394 14.1306 4.19277C14.1916 3.95724 14.2352 3.7806 14.2614 3.66283L14.667 2.29545C14.7019 2.18641 14.7652 2.097 14.8568 2.02721C14.9484 1.95743 15.0509 1.92253 15.1643 1.92253H15.3344C15.4303 1.92253 15.5067 1.96179 15.5634 2.0403C15.5983 2.08828 15.6157 2.13843 15.6157 2.19077C15.6157 2.22131 15.6092 2.25402 15.5961 2.28891L14.3923 5.78913C14.2134 6.26455 14.0062 6.61567 13.7707 6.84247C13.5352 7.06928 13.219 7.18268 12.8221 7.18268Z" fill="#313131"/>
<path d="M16.5204 5.65829C16.4113 5.65829 16.3198 5.62121 16.2456 5.54706C16.1715 5.46855 16.1344 5.37696 16.1344 5.27228V2.29545C16.1344 2.18641 16.1715 2.09482 16.2456 2.02067C16.3198 1.94652 16.4113 1.90945 16.5204 1.90945H16.5531C16.6621 1.90945 16.7559 1.94652 16.8344 2.02067C16.9173 2.09046 16.9653 2.17987 16.9784 2.28891L17.0045 2.55715C17.0045 2.56588 17.0089 2.57024 17.0176 2.57024C17.0263 2.57024 17.0329 2.56588 17.0372 2.55715C17.1725 2.32162 17.3338 2.13843 17.5214 2.00759C17.7089 1.87674 17.9009 1.81131 18.0971 1.81131C18.1189 1.81131 18.1407 1.81131 18.1625 1.81131C18.2716 1.81567 18.3545 1.86583 18.4112 1.96179C18.4504 2.02721 18.47 2.09918 18.47 2.17769C18.47 2.20822 18.4679 2.23875 18.4635 2.26928L18.4439 2.36742C18.4221 2.46338 18.3675 2.53971 18.2803 2.59641C18.1931 2.65311 18.0949 2.68146 17.9859 2.68146C17.9815 2.68146 17.9772 2.68146 17.9728 2.68146C17.8158 2.68146 17.661 2.73816 17.5083 2.85156C17.3556 2.96497 17.2292 3.13943 17.1288 3.37496C17.1158 3.40549 17.1092 3.43603 17.1092 3.46656V5.27228C17.1092 5.37696 17.0721 5.46855 16.998 5.54706C16.9238 5.62121 16.8322 5.65829 16.7232 5.65829H16.5204Z" fill="#313131"/>
<path d="M19.2373 5.65829C19.1283 5.65829 19.0367 5.62121 18.9626 5.54706C18.8884 5.46855 18.8513 5.37696 18.8513 5.27228V2.29545C18.8513 2.18641 18.8884 2.09482 18.9626 2.02067C19.0367 1.94652 19.1283 1.90945 19.2373 1.90945H19.4402C19.5492 1.90945 19.6408 1.94652 19.715 2.02067C19.7891 2.09482 19.8262 2.18641 19.8262 2.29545V5.27228C19.8262 5.37696 19.7891 5.46855 19.715 5.54706C19.6408 5.62121 19.5492 5.65829 19.4402 5.65829H19.2373ZM19.3486 1.301C19.1785 1.301 19.0367 1.25084 18.9233 1.15052C18.8143 1.0502 18.7597 0.921535 18.7597 0.764515C18.7597 0.607496 18.8143 0.481008 18.9233 0.385052C19.0324 0.284734 19.1741 0.234575 19.3486 0.234575C19.5143 0.234575 19.6517 0.284734 19.7607 0.385052C19.8742 0.481008 19.9309 0.607496 19.9309 0.764515C19.9309 0.921535 19.8742 1.0502 19.7607 1.15052C19.6517 1.25084 19.5143 1.301 19.3486 1.301Z" fill="#313131"/>
<path d="M22.0066 7.30699C21.54 7.30699 21.1605 7.22412 20.8683 7.05837C20.5804 6.89699 20.4365 6.6571 20.4365 6.3387C20.4365 6.02903 20.6109 5.77387 20.9599 5.57323C20.9686 5.56887 20.9729 5.56015 20.9729 5.54706C20.9729 5.53398 20.9686 5.52526 20.9599 5.52089C20.7418 5.3726 20.6327 5.16542 20.6327 4.89936C20.6327 4.76851 20.6698 4.64202 20.7439 4.5199C20.8225 4.39777 20.9206 4.29309 21.0384 4.20586C21.0427 4.20149 21.0449 4.19495 21.0449 4.18623C21.0449 4.17751 21.0427 4.16878 21.0384 4.16006C20.8988 4.05974 20.781 3.92453 20.6851 3.75443C20.5935 3.57996 20.5477 3.39241 20.5477 3.19177C20.5477 2.76869 20.6938 2.43721 20.986 2.19732C21.2826 1.95306 21.6424 1.83094 22.0655 1.83094C22.24 1.83094 22.4123 1.85711 22.5824 1.90945C22.6129 1.92253 22.6434 1.92908 22.674 1.92908H23.6161C23.7164 1.92908 23.8015 1.96397 23.8713 2.03376C23.9454 2.10354 23.9825 2.18859 23.9825 2.28891C23.9825 2.38923 23.9454 2.47428 23.8713 2.54407C23.8015 2.61385 23.7164 2.64875 23.6161 2.64875H23.3871C23.3784 2.64875 23.3697 2.65311 23.3609 2.66183C23.3566 2.67056 23.3588 2.67928 23.3675 2.688C23.4634 2.8363 23.5114 3.01295 23.5114 3.21794C23.5114 3.62358 23.374 3.93761 23.0992 4.16006C22.8288 4.3825 22.4842 4.49373 22.0655 4.49373C21.9303 4.49373 21.7842 4.46974 21.6272 4.42176C21.5967 4.40867 21.5705 4.41303 21.5487 4.43484C21.4658 4.51335 21.4244 4.61149 21.4244 4.72925C21.4244 4.83393 21.468 4.91244 21.5552 4.96478C21.6468 5.01276 21.7995 5.03675 22.0132 5.03675H22.6478C23.1101 5.03675 23.4569 5.11308 23.6881 5.26574C23.9236 5.41403 24.0414 5.64956 24.0414 5.97232C24.0414 6.36051 23.856 6.67891 23.4852 6.92753C23.1145 7.1805 22.6216 7.30699 22.0066 7.30699ZM21.6403 3.70209C21.7537 3.82421 21.8954 3.88528 22.0655 3.88528C22.2356 3.88528 22.3752 3.82421 22.4842 3.70209C22.5933 3.5756 22.6478 3.40549 22.6478 3.19177C22.6478 2.97805 22.5933 2.81013 22.4842 2.688C22.3752 2.56588 22.2335 2.50481 22.059 2.50481C21.8889 2.50481 21.7493 2.56588 21.6403 2.688C21.5312 2.81013 21.4767 2.97805 21.4767 3.19177C21.4767 3.40549 21.5312 3.5756 21.6403 3.70209ZM22.1506 6.68545C22.4254 6.68545 22.6522 6.63093 22.831 6.52189C23.0142 6.41721 23.1058 6.29072 23.1058 6.14243C23.1058 6.01158 23.0534 5.92216 22.9488 5.87419C22.8484 5.82621 22.6914 5.80222 22.4777 5.80222H22.0263C21.8387 5.80222 21.6795 5.78913 21.5487 5.76296C21.5399 5.76296 21.5312 5.76296 21.5225 5.76296C21.5007 5.76296 21.4811 5.76951 21.4636 5.78259C21.324 5.90472 21.2543 6.03993 21.2543 6.18823C21.2543 6.34524 21.335 6.46737 21.4963 6.5546C21.6577 6.64184 21.8758 6.68545 22.1506 6.68545Z" fill="#313131"/>
<path d="M24.8675 5.65829C24.7585 5.65829 24.6669 5.62121 24.5928 5.54706C24.5186 5.46855 24.4815 5.37696 24.4815 5.27228V0.699091C24.4815 0.590049 24.5186 0.498455 24.5928 0.424307C24.6669 0.350159 24.7585 0.313085 24.8675 0.313085H25.0704C25.1794 0.313085 25.271 0.350159 25.3451 0.424307C25.4193 0.498455 25.4564 0.590049 25.4564 0.699091V1.66083L25.4236 2.31508C25.4236 2.3238 25.4258 2.33035 25.4302 2.33471C25.4389 2.33907 25.4476 2.33689 25.4564 2.32817C25.8315 1.9836 26.2109 1.81131 26.5948 1.81131C27.3711 1.81131 27.7593 2.31508 27.7593 3.32262V5.27228C27.7593 5.37696 27.7201 5.46855 27.6415 5.54706C27.5674 5.62121 27.478 5.65829 27.3733 5.65829H27.1574C27.0527 5.65829 26.9611 5.62121 26.8826 5.54706C26.8085 5.46855 26.7714 5.37696 26.7714 5.27228V3.44039C26.7714 3.15688 26.73 2.95624 26.6471 2.83848C26.5642 2.71635 26.429 2.65529 26.2415 2.65529C26.1019 2.65529 25.9776 2.68582 25.8685 2.74688C25.7639 2.80795 25.6396 2.90827 25.4956 3.04784C25.4694 3.06965 25.4564 3.09582 25.4564 3.12635V5.27228C25.4564 5.37696 25.4193 5.46855 25.3451 5.54706C25.271 5.62121 25.1794 5.65829 25.0704 5.65829H24.8675Z" fill="#313131"/>
<path d="M29.9398 5.74988C29.1154 5.74988 28.7033 5.281 28.7033 4.34325V2.7338C28.7033 2.69891 28.688 2.68146 28.6575 2.68146H28.5397C28.4394 2.68146 28.3543 2.64657 28.2845 2.57678C28.2148 2.50699 28.1799 2.42194 28.1799 2.32162C28.1799 2.21694 28.2148 2.12753 28.2845 2.05338C28.3543 1.97487 28.4394 1.93126 28.5397 1.92253L28.7033 1.90945C28.7382 1.90945 28.7556 1.892 28.7556 1.85711L28.821 1.28791C28.8341 1.17887 28.8821 1.08728 28.965 1.01313C29.0478 0.938981 29.1438 0.901907 29.2528 0.901907H29.3052C29.4098 0.901907 29.4993 0.941162 29.5734 1.01967C29.6519 1.09382 29.6912 1.18323 29.6912 1.28791V1.85711C29.6912 1.892 29.7064 1.90945 29.737 1.90945H30.2277C30.3367 1.90945 30.4283 1.94652 30.5024 2.02067C30.5766 2.09482 30.6137 2.18641 30.6137 2.29545C30.6137 2.4045 30.5766 2.49609 30.5024 2.57024C30.4283 2.64439 30.3367 2.68146 30.2277 2.68146H29.737C29.7064 2.68146 29.6912 2.69891 29.6912 2.7338V4.34325C29.6912 4.76633 29.8613 4.97787 30.2015 4.97787C30.2058 4.97787 30.208 4.97787 30.208 4.97787C30.2124 4.97787 30.2168 4.97787 30.2211 4.97787C30.3214 4.97787 30.413 4.99968 30.4959 5.04329C30.5788 5.09127 30.6289 5.16106 30.6464 5.25265C30.6551 5.28318 30.6595 5.31372 30.6595 5.34425C30.6595 5.41403 30.642 5.47946 30.6071 5.54052C30.5548 5.63212 30.4785 5.68882 30.3781 5.71063C30.2298 5.73679 30.0837 5.74988 29.9398 5.74988Z" fill="#313131"/>
<path d="M42.1776 5.65829C42.0729 5.65829 41.9813 5.62121 41.9028 5.54706C41.8287 5.46855 41.7916 5.37696 41.7916 5.27228V1.0851C41.7916 0.980417 41.8287 0.891003 41.9028 0.816855C41.9813 0.738345 42.0729 0.699091 42.1776 0.699091H42.4001C42.5047 0.699091 42.5942 0.738345 42.6683 0.816855C42.7468 0.891003 42.7861 0.980417 42.7861 1.0851V2.83848C42.7861 2.8472 42.7882 2.85156 42.7926 2.85156C42.8013 2.85156 42.8079 2.84938 42.8122 2.84502L44.2123 1.00659C44.3693 0.801589 44.5765 0.699091 44.8339 0.699091H45.1544C45.233 0.699091 45.2896 0.733984 45.3245 0.80377C45.3376 0.834302 45.3442 0.864833 45.3442 0.895365C45.3442 0.93462 45.3289 0.971694 45.2984 1.00659L44.0553 2.60949C44.0335 2.63566 44.0313 2.66401 44.0488 2.69455L45.6059 5.32462C45.632 5.36387 45.6451 5.40095 45.6451 5.43584C45.6451 5.4751 45.6342 5.51217 45.6124 5.54706C45.5688 5.62121 45.5056 5.65829 45.4227 5.65829H45.1021C44.98 5.65829 44.8666 5.62993 44.7619 5.57323C44.6616 5.51217 44.5809 5.4293 44.5198 5.32462L43.4599 3.47964C43.4425 3.44911 43.4229 3.44693 43.4011 3.4731L42.8122 4.22548C42.7948 4.25165 42.7861 4.28219 42.7861 4.31708V5.27228C42.7861 5.37696 42.7468 5.46855 42.6683 5.54706C42.5942 5.62121 42.5047 5.65829 42.4001 5.65829H42.1776Z" fill="#313131"/>
<path d="M47.0667 3.56469C47.0623 3.57778 47.0623 3.59086 47.0667 3.60395C47.0754 3.61267 47.0863 3.61703 47.0994 3.61703H48.1789C48.192 3.61703 48.2029 3.61267 48.2116 3.60395C48.2203 3.59086 48.2225 3.57778 48.2182 3.56469L48.0808 3.07401C48.0241 2.87773 47.9455 2.58768 47.8452 2.20386C47.7449 1.81567 47.6795 1.56924 47.649 1.46456C47.649 1.45584 47.6446 1.45148 47.6359 1.45148C47.6271 1.45148 47.6206 1.45584 47.6162 1.46456C47.4898 1.99668 47.3502 2.53316 47.1975 3.07401L47.0667 3.56469ZM49.1799 5.65829C49.0665 5.65829 48.964 5.62339 48.8724 5.55361C48.7808 5.48382 48.7197 5.39441 48.6892 5.28536L48.4602 4.43484C48.4515 4.39995 48.4297 4.3825 48.3948 4.3825H46.8835C46.853 4.3825 46.8333 4.39995 46.8246 4.43484L46.5891 5.28536C46.5585 5.39441 46.4975 5.48382 46.4059 5.55361C46.3186 5.62339 46.2183 5.65829 46.1049 5.65829H45.8694C45.7734 5.65829 45.6971 5.61903 45.6404 5.54052C45.6055 5.49254 45.5881 5.4402 45.5881 5.3835C45.5881 5.35297 45.5924 5.32244 45.6012 5.29191L46.9555 1.06547C46.9903 0.956428 47.0536 0.869195 47.1452 0.80377C47.2368 0.733984 47.3415 0.699091 47.4592 0.699091H47.8518C47.9652 0.699091 48.0677 0.733984 48.1593 0.80377C48.2552 0.869195 48.3206 0.956428 48.3555 1.06547L49.7164 5.29191C49.7251 5.32244 49.7295 5.35297 49.7295 5.3835C49.7295 5.4402 49.7098 5.49254 49.6706 5.54052C49.6139 5.61903 49.5397 5.65829 49.4481 5.65829H49.1799Z" fill="#313131"/>
<path d="M51.6875 5.74988C51.1379 5.74988 50.6363 5.59068 50.1827 5.27228C50.0955 5.21122 50.0475 5.12616 50.0388 5.01712C50.0344 5.00404 50.0322 4.99313 50.0322 4.98441C50.0322 4.88845 50.065 4.8034 50.1304 4.72925L50.2024 4.6442C50.2678 4.56133 50.355 4.51553 50.4641 4.50681C50.4771 4.50681 50.4924 4.50681 50.5098 4.50681C50.5971 4.50681 50.68 4.5308 50.7585 4.57878C51.0769 4.78814 51.3953 4.89282 51.7137 4.89282C51.9666 4.89282 52.1607 4.84266 52.2959 4.74234C52.4312 4.64202 52.4988 4.50245 52.4988 4.32362C52.4988 4.16224 52.4464 4.04229 52.3417 3.96378C52.2371 3.88091 52.0582 3.78496 51.8053 3.67592C51.7834 3.66719 51.7682 3.66065 51.7595 3.65629L51.0921 3.37496C50.8043 3.25284 50.5644 3.08273 50.3725 2.86465C50.1849 2.64657 50.0911 2.37178 50.0911 2.0403C50.0911 1.6303 50.2525 1.29009 50.5753 1.01967C50.898 0.744888 51.308 0.607496 51.8053 0.607496C52.2676 0.607496 52.6863 0.736165 53.0614 0.993502C53.153 1.05456 53.2032 1.1418 53.2119 1.2552C53.2119 1.26392 53.2119 1.27483 53.2119 1.28791C53.2119 1.38387 53.1792 1.46892 53.1138 1.54307L53.1007 1.5627C53.0352 1.64557 52.948 1.69355 52.839 1.70663C52.8172 1.71099 52.7954 1.71317 52.7735 1.71317C52.6907 1.71317 52.6122 1.69137 52.538 1.64775C52.3112 1.52126 52.067 1.45802 51.8053 1.45802C51.5872 1.45802 51.4127 1.50381 51.2819 1.59541C51.151 1.687 51.0856 1.81567 51.0856 1.98142C51.0856 2.06429 51.103 2.13625 51.1379 2.19732C51.1728 2.25838 51.2295 2.31508 51.308 2.36742C51.3909 2.41976 51.4629 2.4612 51.5239 2.49173C51.5894 2.52226 51.6875 2.56151 51.8183 2.60949C51.8401 2.61822 51.8554 2.62476 51.8641 2.62912L52.5118 2.9039C52.839 3.03912 53.0876 3.21358 53.2577 3.4273C53.4278 3.63666 53.5128 3.91145 53.5128 4.25165C53.5128 4.67473 53.3471 5.03021 53.0156 5.31808C52.6885 5.60595 52.2458 5.74988 51.6875 5.74988Z" fill="#313131"/>
<path d="M55.1307 3.56469C55.1263 3.57778 55.1263 3.59086 55.1307 3.60395C55.1394 3.61267 55.1503 3.61703 55.1634 3.61703H56.2429C56.256 3.61703 56.2669 3.61267 56.2756 3.60395C56.2843 3.59086 56.2865 3.57778 56.2821 3.56469L56.1448 3.07401C56.0881 2.87773 56.0095 2.58768 55.9092 2.20386C55.8089 1.81567 55.7435 1.56924 55.7129 1.46456C55.7129 1.45584 55.7086 1.45148 55.6999 1.45148C55.6911 1.45148 55.6846 1.45584 55.6802 1.46456C55.5537 1.99668 55.4142 2.53316 55.2615 3.07401L55.1307 3.56469ZM57.2439 5.65829C57.1305 5.65829 57.028 5.62339 56.9364 5.55361C56.8448 5.48382 56.7837 5.39441 56.7532 5.28536L56.5242 4.43484C56.5155 4.39995 56.4937 4.3825 56.4588 4.3825H54.9475C54.9169 4.3825 54.8973 4.39995 54.8886 4.43484L54.6531 5.28536C54.6225 5.39441 54.5615 5.48382 54.4699 5.55361C54.3826 5.62339 54.2823 5.65829 54.1689 5.65829H53.9334C53.8374 5.65829 53.7611 5.61903 53.7044 5.54052C53.6695 5.49254 53.6521 5.4402 53.6521 5.3835C53.6521 5.35297 53.6564 5.32244 53.6652 5.29191L55.0194 1.06547C55.0543 0.956428 55.1176 0.869195 55.2092 0.80377C55.3008 0.733984 55.4055 0.699091 55.5232 0.699091H55.9158C56.0292 0.699091 56.1317 0.733984 56.2233 0.80377C56.3192 0.869195 56.3846 0.956428 56.4195 1.06547L57.7804 5.29191C57.7891 5.32244 57.7935 5.35297 57.7935 5.3835C57.7935 5.4402 57.7738 5.49254 57.7346 5.54052C57.6779 5.61903 57.6037 5.65829 57.5121 5.65829H57.2439Z" fill="#313131"/>
<path d="M58.6589 5.65829C58.5542 5.65829 58.4626 5.62121 58.3841 5.54706C58.31 5.46855 58.2729 5.37696 58.2729 5.27228V1.0851C58.2729 0.980417 58.31 0.891003 58.3841 0.816855C58.4626 0.738345 58.5542 0.699091 58.6589 0.699091H58.8813C58.986 0.699091 59.0754 0.738345 59.1496 0.816855C59.2281 0.891003 59.2673 0.980417 59.2673 1.0851V2.83848C59.2673 2.8472 59.2695 2.85156 59.2739 2.85156C59.2826 2.85156 59.2892 2.84938 59.2935 2.84502L60.6936 1.00659C60.8506 0.801589 61.0578 0.699091 61.3151 0.699091H61.6357C61.7142 0.699091 61.7709 0.733984 61.8058 0.80377C61.8189 0.834302 61.8255 0.864833 61.8255 0.895365C61.8255 0.93462 61.8102 0.971694 61.7797 1.00659L60.5366 2.60949C60.5148 2.63566 60.5126 2.66401 60.53 2.69455L62.0872 5.32462C62.1133 5.36387 62.1264 5.40095 62.1264 5.43584C62.1264 5.4751 62.1155 5.51217 62.0937 5.54706C62.0501 5.62121 61.9868 5.65829 61.904 5.65829H61.5834C61.4613 5.65829 61.3479 5.62993 61.2432 5.57323C61.1429 5.51217 61.0622 5.4293 61.0011 5.32462L59.9412 3.47964C59.9238 3.44911 59.9041 3.44693 59.8823 3.4731L59.2935 4.22548C59.2761 4.25165 59.2673 4.28219 59.2673 4.31708V5.27228C59.2673 5.37696 59.2281 5.46855 59.1496 5.54706C59.0754 5.62121 58.986 5.65829 58.8813 5.65829H58.6589Z" fill="#313131"/>
<path d="M63.0507 5.65829C62.946 5.65829 62.8545 5.62121 62.7759 5.54706C62.7018 5.46855 62.6647 5.37696 62.6647 5.27228V1.0851C62.6647 0.980417 62.7018 0.891003 62.7759 0.816855C62.8545 0.738345 62.946 0.699091 63.0507 0.699091H63.2732C63.3778 0.699091 63.4673 0.738345 63.5414 0.816855C63.6199 0.891003 63.6592 0.980417 63.6592 1.0851V5.27228C63.6592 5.37696 63.6199 5.46855 63.5414 5.54706C63.4673 5.62121 63.3778 5.65829 63.2732 5.65829H63.0507Z" fill="#313131"/>
<path d="M65.0546 5.65829C64.9499 5.65829 64.8583 5.62121 64.7798 5.54706C64.7056 5.46855 64.6685 5.37696 64.6685 5.27228V1.0851C64.6685 0.980417 64.7056 0.891003 64.7798 0.816855C64.8583 0.738345 64.9499 0.699091 65.0546 0.699091H65.277C65.3817 0.699091 65.4711 0.738345 65.5452 0.816855C65.6237 0.891003 65.663 0.980417 65.663 1.0851V5.27228C65.663 5.37696 65.6237 5.46855 65.5452 5.54706C65.4711 5.62121 65.3817 5.65829 65.277 5.65829H65.0546Z" fill="#313131"/>
<path d="M67.15 5.74988C66.9755 5.74988 66.8294 5.68882 66.7116 5.56669C66.5982 5.44456 66.5415 5.29191 66.5415 5.10872C66.5415 4.92553 66.5982 4.77287 66.7116 4.65074C66.8294 4.52862 66.9755 4.46756 67.15 4.46756C67.3244 4.46756 67.4706 4.52862 67.5883 4.65074C67.7061 4.77287 67.765 4.92553 67.765 5.10872C67.765 5.29191 67.7061 5.44456 67.5883 5.56669C67.4706 5.68882 67.3244 5.74988 67.15 5.74988Z" fill="#313131"/>
<path d="M69.5921 3.56469C69.5878 3.57778 69.5878 3.59086 69.5921 3.60395C69.6009 3.61267 69.6118 3.61703 69.6249 3.61703H70.7044C70.7175 3.61703 70.7284 3.61267 70.7371 3.60395C70.7458 3.59086 70.748 3.57778 70.7436 3.56469L70.6062 3.07401C70.5495 2.87773 70.471 2.58768 70.3707 2.20386C70.2704 1.81567 70.205 1.56924 70.1744 1.46456C70.1744 1.45584 70.1701 1.45148 70.1613 1.45148C70.1526 1.45148 70.1461 1.45584 70.1417 1.46456C70.0152 1.99668 69.8757 2.53316 69.723 3.07401L69.5921 3.56469ZM71.7054 5.65829C71.592 5.65829 71.4895 5.62339 71.3979 5.55361C71.3063 5.48382 71.2452 5.39441 71.2147 5.28536L70.9857 4.43484C70.977 4.39995 70.9552 4.3825 70.9203 4.3825H69.409C69.3784 4.3825 69.3588 4.39995 69.3501 4.43484L69.1145 5.28536C69.084 5.39441 69.0229 5.48382 68.9314 5.55361C68.8441 5.62339 68.7438 5.65829 68.6304 5.65829H68.3949C68.2989 5.65829 68.2226 5.61903 68.1659 5.54052C68.131 5.49254 68.1135 5.4402 68.1135 5.3835C68.1135 5.35297 68.1179 5.32244 68.1266 5.29191L69.4809 1.06547C69.5158 0.956428 69.5791 0.869195 69.6707 0.80377C69.7623 0.733984 69.8669 0.699091 69.9847 0.699091H70.3773C70.4907 0.699091 70.5932 0.733984 70.6847 0.80377C70.7807 0.869195 70.8461 0.956428 70.881 1.06547L72.2419 5.29191C72.2506 5.32244 72.2549 5.35297 72.2549 5.3835C72.2549 5.4402 72.2353 5.49254 72.1961 5.54052C72.1394 5.61903 72.0652 5.65829 71.9736 5.65829H71.7054Z" fill="#313131"/>
<path d="M73.5783 5.74988C73.2512 5.74988 73.0157 5.65174 72.8718 5.45547C72.7278 5.25919 72.6559 4.97569 72.6559 4.60495V0.699091C72.6559 0.590049 72.6929 0.498455 72.7671 0.424307C72.8412 0.350159 72.9328 0.313085 73.0419 0.313085H73.2447C73.3537 0.313085 73.4453 0.350159 73.5195 0.424307C73.5936 0.498455 73.6307 0.590049 73.6307 0.699091V4.65074C73.6307 4.79032 73.6699 4.88191 73.7485 4.92553C73.7528 4.92989 73.7724 4.94079 73.8073 4.95824C73.8422 4.97569 73.8662 4.98877 73.8793 4.9975C73.8924 5.00622 73.9098 5.0193 73.9316 5.03675C73.9578 5.0542 73.9753 5.07382 73.984 5.09563C73.9927 5.11308 73.9992 5.13271 74.0036 5.15451L74.0298 5.29845C74.0341 5.32462 74.0363 5.35079 74.0363 5.37696C74.0363 5.45547 74.0145 5.52962 73.9709 5.5994C73.9142 5.68664 73.8335 5.73461 73.7288 5.74334C73.6808 5.7477 73.6307 5.74988 73.5783 5.74988Z" fill="#313131"/>
<path d="M75.484 5.74988C75.1569 5.74988 74.9214 5.65174 74.7775 5.45547C74.6335 5.25919 74.5616 4.97569 74.5616 4.60495V0.699091C74.5616 0.590049 74.5986 0.498455 74.6728 0.424307C74.7469 0.350159 74.8385 0.313085 74.9476 0.313085H75.1504C75.2594 0.313085 75.351 0.350159 75.4252 0.424307C75.4993 0.498455 75.5364 0.590049 75.5364 0.699091V4.65074C75.5364 4.79032 75.5756 4.88191 75.6541 4.92553C75.6585 4.92989 75.6781 4.94079 75.713 4.95824C75.7479 4.97569 75.7719 4.98877 75.785 4.9975C75.7981 5.00622 75.8155 5.0193 75.8373 5.03675C75.8635 5.0542 75.881 5.07382 75.8897 5.09563C75.8984 5.11308 75.9049 5.13271 75.9093 5.15451L75.9355 5.29845C75.9398 5.32462 75.942 5.35079 75.942 5.37696C75.942 5.45547 75.9202 5.52962 75.8766 5.5994C75.8199 5.68664 75.7392 5.73461 75.6345 5.74334C75.5865 5.7477 75.5364 5.74988 75.484 5.74988Z" fill="#313131"/>
<path d="M78.9029 1.48419C78.8723 1.48419 78.8571 1.50163 78.8571 1.53653V2.9497C78.8571 2.98023 78.8723 2.9955 78.9029 2.9955H79.4982C79.8166 2.9955 80.0609 2.93007 80.231 2.79922C80.4011 2.66401 80.4862 2.46556 80.4862 2.20386C80.4862 1.94216 80.4033 1.75679 80.2375 1.64775C80.0762 1.53871 79.8297 1.48419 79.4982 1.48419H78.9029ZM81.4806 5.32462C81.4981 5.35951 81.5068 5.39659 81.5068 5.43584C81.5068 5.47073 81.4959 5.50781 81.4741 5.54706C81.4348 5.62121 81.3716 5.65829 81.2843 5.65829H80.9507C80.8329 5.65829 80.7217 5.62775 80.617 5.56669C80.5167 5.50563 80.4382 5.42276 80.3815 5.31808L79.5702 3.82639C79.5528 3.79586 79.5288 3.7806 79.4982 3.7806H78.9029C78.8723 3.7806 78.8571 3.79804 78.8571 3.83294V5.27228C78.8571 5.37696 78.8178 5.46855 78.7393 5.54706C78.6652 5.62121 78.5758 5.65829 78.4711 5.65829H78.2486C78.1439 5.65829 78.0524 5.62121 77.9738 5.54706C77.8997 5.46855 77.8626 5.37696 77.8626 5.27228V1.0851C77.8626 0.980417 77.8997 0.891003 77.9738 0.816855C78.0524 0.738345 78.1439 0.699091 78.2486 0.699091H79.5898C80.8329 0.699091 81.4544 1.20068 81.4544 2.20386C81.4544 2.55279 81.3759 2.84502 81.2189 3.08055C81.0619 3.31608 80.8416 3.49273 80.5581 3.61049C80.5276 3.62358 80.5189 3.6432 80.532 3.66937L81.4806 5.32462Z" fill="#313131"/>
<path d="M82.5358 5.65829C82.4267 5.65829 82.3351 5.62121 82.261 5.54706C82.1868 5.46855 82.1498 5.37696 82.1498 5.27228V2.29545C82.1498 2.18641 82.1868 2.09482 82.261 2.02067C82.3351 1.94652 82.4267 1.90945 82.5358 1.90945H82.7386C82.8476 1.90945 82.9392 1.94652 83.0134 2.02067C83.0875 2.09482 83.1246 2.18641 83.1246 2.29545V5.27228C83.1246 5.37696 83.0875 5.46855 83.0134 5.54706C82.9392 5.62121 82.8476 5.65829 82.7386 5.65829H82.5358ZM82.647 1.301C82.4769 1.301 82.3351 1.25084 82.2217 1.15052C82.1127 1.0502 82.0582 0.921535 82.0582 0.764515C82.0582 0.607496 82.1127 0.481008 82.2217 0.385052C82.3308 0.284734 82.4725 0.234575 82.647 0.234575C82.8127 0.234575 82.9501 0.284734 83.0592 0.385052C83.1726 0.481008 83.2293 0.607496 83.2293 0.764515C83.2293 0.921535 83.1726 1.0502 83.0592 1.15052C82.9501 1.25084 82.8127 1.301 82.647 1.301Z" fill="#313131"/>
<path d="M85.3051 7.30699C84.8384 7.30699 84.4589 7.22412 84.1667 7.05837C83.8788 6.89699 83.7349 6.6571 83.7349 6.3387C83.7349 6.02903 83.9093 5.77387 84.2583 5.57323C84.267 5.56887 84.2714 5.56015 84.2714 5.54706C84.2714 5.53398 84.267 5.52526 84.2583 5.52089C84.0402 5.3726 83.9312 5.16542 83.9312 4.89936C83.9312 4.76851 83.9682 4.64202 84.0424 4.5199C84.1209 4.39777 84.219 4.29309 84.3368 4.20586C84.3412 4.20149 84.3433 4.19495 84.3433 4.18623C84.3433 4.17751 84.3412 4.16878 84.3368 4.16006C84.1972 4.05974 84.0795 3.92453 83.9835 3.75443C83.8919 3.57996 83.8461 3.39241 83.8461 3.19177C83.8461 2.76869 83.9922 2.43721 84.2845 2.19732C84.581 1.95306 84.9409 1.83094 85.364 1.83094C85.5384 1.83094 85.7107 1.85711 85.8808 1.90945C85.9113 1.92253 85.9419 1.92908 85.9724 1.92908H86.9145C87.0148 1.92908 87.0999 1.96397 87.1697 2.03376C87.2438 2.10354 87.2809 2.18859 87.2809 2.28891C87.2809 2.38923 87.2438 2.47428 87.1697 2.54407C87.0999 2.61385 87.0148 2.64875 86.9145 2.64875H86.6855C86.6768 2.64875 86.6681 2.65311 86.6594 2.66183C86.655 2.67056 86.6572 2.67928 86.6659 2.688C86.7619 2.8363 86.8098 3.01295 86.8098 3.21794C86.8098 3.62358 86.6724 3.93761 86.3977 4.16006C86.1272 4.3825 85.7827 4.49373 85.364 4.49373C85.2288 4.49373 85.0826 4.46974 84.9256 4.42176C84.8951 4.40867 84.8689 4.41303 84.8471 4.43484C84.7642 4.51335 84.7228 4.61149 84.7228 4.72925C84.7228 4.83393 84.7664 4.91244 84.8536 4.96478C84.9452 5.01276 85.0979 5.03675 85.3116 5.03675H85.9462C86.4086 5.03675 86.7553 5.11308 86.9865 5.26574C87.222 5.41403 87.3398 5.64956 87.3398 5.97232C87.3398 6.36051 87.1544 6.67891 86.7837 6.92753C86.4129 7.1805 85.9201 7.30699 85.3051 7.30699ZM84.9387 3.70209C85.0521 3.82421 85.1939 3.88528 85.364 3.88528C85.5341 3.88528 85.6736 3.82421 85.7827 3.70209C85.8917 3.5756 85.9462 3.40549 85.9462 3.19177C85.9462 2.97805 85.8917 2.81013 85.7827 2.688C85.6736 2.56588 85.5319 2.50481 85.3574 2.50481C85.1873 2.50481 85.0477 2.56588 84.9387 2.688C84.8297 2.81013 84.7751 2.97805 84.7751 3.19177C84.7751 3.40549 84.8297 3.5756 84.9387 3.70209ZM85.449 6.68545C85.7238 6.68545 85.9506 6.63093 86.1294 6.52189C86.3126 6.41721 86.4042 6.29072 86.4042 6.14243C86.4042 6.01158 86.3519 5.92216 86.2472 5.87419C86.1469 5.82621 85.9899 5.80222 85.7761 5.80222H85.3247C85.1372 5.80222 84.978 5.78913 84.8471 5.76296C84.8384 5.76296 84.8297 5.76296 84.8209 5.76296C84.7991 5.76296 84.7795 5.76951 84.7621 5.78259C84.6225 5.90472 84.5527 6.03993 84.5527 6.18823C84.5527 6.34524 84.6334 6.46737 84.7948 6.5546C84.9561 6.64184 85.1742 6.68545 85.449 6.68545Z" fill="#313131"/>
<path d="M88.166 5.65829C88.0569 5.65829 87.9653 5.62121 87.8912 5.54706C87.817 5.46855 87.78 5.37696 87.78 5.27228V0.699091C87.78 0.590049 87.817 0.498455 87.8912 0.424307C87.9653 0.350159 88.0569 0.313085 88.166 0.313085H88.3688C88.4778 0.313085 88.5694 0.350159 88.6436 0.424307C88.7177 0.498455 88.7548 0.590049 88.7548 0.699091V1.66083L88.7221 2.31508C88.7221 2.3238 88.7243 2.33035 88.7286 2.33471C88.7373 2.33907 88.7461 2.33689 88.7548 2.32817C89.1299 1.9836 89.5094 1.81131 89.8932 1.81131C90.6696 1.81131 91.0577 2.31508 91.0577 3.32262V5.27228C91.0577 5.37696 91.0185 5.46855 90.94 5.54706C90.8658 5.62121 90.7764 5.65829 90.6717 5.65829H90.4558C90.3512 5.65829 90.2596 5.62121 90.1811 5.54706C90.1069 5.46855 90.0698 5.37696 90.0698 5.27228V3.44039C90.0698 3.15688 90.0284 2.95624 89.9455 2.83848C89.8626 2.71635 89.7274 2.65529 89.5399 2.65529C89.4003 2.65529 89.276 2.68582 89.167 2.74688C89.0623 2.80795 88.938 2.90827 88.794 3.04784C88.7679 3.06965 88.7548 3.09582 88.7548 3.12635V5.27228C88.7548 5.37696 88.7177 5.46855 88.6436 5.54706C88.5694 5.62121 88.4778 5.65829 88.3688 5.65829H88.166Z" fill="#313131"/>
<path d="M93.2382 5.74988C92.4139 5.74988 92.0017 5.281 92.0017 4.34325V2.7338C92.0017 2.69891 91.9864 2.68146 91.9559 2.68146H91.8381C91.7378 2.68146 91.6528 2.64657 91.583 2.57678C91.5132 2.50699 91.4783 2.42194 91.4783 2.32162C91.4783 2.21694 91.5132 2.12753 91.583 2.05338C91.6528 1.97487 91.7378 1.93126 91.8381 1.92253L92.0017 1.90945C92.0366 1.90945 92.054 1.892 92.054 1.85711L92.1195 1.28791C92.1325 1.17887 92.1805 1.08728 92.2634 1.01313C92.3463 0.938981 92.4422 0.901907 92.5513 0.901907H92.6036C92.7083 0.901907 92.7977 0.941162 92.8718 1.01967C92.9503 1.09382 92.9896 1.18323 92.9896 1.28791V1.85711C92.9896 1.892 93.0049 1.90945 93.0354 1.90945H93.5261C93.6351 1.90945 93.7267 1.94652 93.8009 2.02067C93.875 2.09482 93.9121 2.18641 93.9121 2.29545C93.9121 2.4045 93.875 2.49609 93.8009 2.57024C93.7267 2.64439 93.6351 2.68146 93.5261 2.68146H93.0354C93.0049 2.68146 92.9896 2.69891 92.9896 2.7338V4.34325C92.9896 4.76633 93.1597 4.97787 93.4999 4.97787C93.5043 4.97787 93.5065 4.97787 93.5065 4.97787C93.5108 4.97787 93.5152 4.97787 93.5195 4.97787C93.6199 4.97787 93.7115 4.99968 93.7943 5.04329C93.8772 5.09127 93.9274 5.16106 93.9448 5.25265C93.9535 5.28318 93.9579 5.31372 93.9579 5.34425C93.9579 5.41403 93.9404 5.47946 93.9055 5.54052C93.8532 5.63212 93.7769 5.68882 93.6766 5.71063C93.5283 5.73679 93.3822 5.74988 93.2382 5.74988Z" fill="#313131"/>
<path d="M95.5495 5.74988C95.1744 5.74988 94.8015 5.6452 94.4308 5.43584C94.3435 5.38786 94.2912 5.30935 94.2738 5.20031C94.2694 5.1785 94.2672 5.15888 94.2672 5.14143C94.2672 5.05856 94.2934 4.98223 94.3457 4.91244C94.4068 4.82957 94.4897 4.77941 94.5943 4.76197C94.6205 4.76197 94.6445 4.76197 94.6663 4.76197C94.7448 4.76197 94.8168 4.78159 94.8822 4.82085C95.1177 4.9517 95.3489 5.01712 95.5757 5.01712C95.7545 5.01712 95.8898 4.98223 95.9813 4.91244C96.0729 4.83829 96.1187 4.74016 96.1187 4.61803C96.1187 4.57005 96.1035 4.52426 96.0729 4.48064C96.0468 4.43266 96.0162 4.39341 95.9813 4.36288C95.9464 4.33234 95.8919 4.29963 95.8178 4.26474C95.7436 4.22548 95.6826 4.19713 95.6346 4.17969C95.5866 4.15788 95.5146 4.12735 95.4187 4.08809C95.3794 4.07501 95.3511 4.0641 95.3336 4.05538C95.1941 4.00304 95.0719 3.9507 94.9673 3.89836C94.8626 3.84166 94.7557 3.76969 94.6467 3.68246C94.5376 3.59523 94.4526 3.49055 94.3915 3.36842C94.3348 3.24629 94.3065 3.11108 94.3065 2.96279C94.3065 2.62258 94.433 2.34561 94.6859 2.13189C94.9433 1.91817 95.2813 1.81131 95.7 1.81131C96.0359 1.81131 96.3586 1.89854 96.6683 2.07301C96.7599 2.12099 96.8122 2.19514 96.8253 2.29545C96.8297 2.31726 96.8319 2.33907 96.8319 2.36088C96.8319 2.43939 96.8079 2.50918 96.7599 2.57024C96.6988 2.65311 96.616 2.70327 96.5113 2.72072C96.4851 2.72508 96.4568 2.72726 96.4262 2.72726C96.3564 2.72726 96.2888 2.71199 96.2234 2.68146C96.049 2.59423 95.8832 2.55061 95.7262 2.55061C95.5648 2.55061 95.4427 2.58332 95.3598 2.64875C95.2769 2.71417 95.2355 2.80141 95.2355 2.91045C95.2355 2.94098 95.2377 2.96933 95.242 2.9955C95.2508 3.02167 95.2639 3.04784 95.2813 3.07401C95.3031 3.09582 95.3227 3.11763 95.3402 3.13943C95.3576 3.15688 95.3838 3.17651 95.4187 3.19832C95.4579 3.21576 95.4885 3.23103 95.5103 3.24411C95.5365 3.2572 95.5735 3.27464 95.6215 3.29645C95.6739 3.3139 95.7131 3.32916 95.7393 3.34225C95.7654 3.35097 95.8069 3.36624 95.8636 3.38805C95.9246 3.40986 95.9683 3.42512 95.9944 3.43384C96.1166 3.48182 96.2169 3.52326 96.2954 3.55815C96.3783 3.59304 96.4698 3.64538 96.5702 3.71517C96.6749 3.7806 96.7577 3.85038 96.8188 3.92453C96.8798 3.99432 96.9322 4.08591 96.9758 4.19931C97.0194 4.30836 97.0412 4.43048 97.0412 4.56569C97.0412 4.91026 96.9104 5.19377 96.6487 5.41621C96.387 5.63866 96.0206 5.74988 95.5495 5.74988Z" fill="#313131"/>
<path d="M100.022 1.48419C99.9912 1.48419 99.9759 1.50163 99.9759 1.53653V2.9497C99.9759 2.98023 99.9912 2.9955 100.022 2.9955H100.617C100.935 2.9955 101.18 2.93007 101.35 2.79922C101.52 2.66401 101.605 2.46556 101.605 2.20386C101.605 1.94216 101.522 1.75679 101.356 1.64775C101.195 1.53871 100.949 1.48419 100.617 1.48419H100.022ZM102.599 5.32462C102.617 5.35951 102.626 5.39659 102.626 5.43584C102.626 5.47073 102.615 5.50781 102.593 5.54706C102.554 5.62121 102.49 5.65829 102.403 5.65829H102.07C101.952 5.65829 101.841 5.62775 101.736 5.56669C101.636 5.50563 101.557 5.42276 101.5 5.31808L100.689 3.82639C100.672 3.79586 100.648 3.7806 100.617 3.7806H100.022C99.9912 3.7806 99.9759 3.79804 99.9759 3.83294V5.27228C99.9759 5.37696 99.9367 5.46855 99.8582 5.54706C99.784 5.62121 99.6946 5.65829 99.5899 5.65829H99.3675C99.2628 5.65829 99.1712 5.62121 99.0927 5.54706C99.0185 5.46855 98.9815 5.37696 98.9815 5.27228V1.0851C98.9815 0.980417 99.0185 0.891003 99.0927 0.816855C99.1712 0.738345 99.2628 0.699091 99.3675 0.699091H100.709C101.952 0.699091 102.573 1.20068 102.573 2.20386C102.573 2.55279 102.495 2.84502 102.338 3.08055C102.181 3.31608 101.96 3.49273 101.677 3.61049C101.646 3.62358 101.638 3.6432 101.651 3.66937L102.599 5.32462Z" fill="#313131"/>
<path d="M104.832 5.74988C104.291 5.74988 103.844 5.57323 103.491 5.21994C103.142 4.86665 102.968 4.38905 102.968 3.78714C102.968 3.49491 103.016 3.2223 103.112 2.96933C103.212 2.71635 103.343 2.50699 103.504 2.34125C103.67 2.17551 103.857 2.04684 104.067 1.95525C104.276 1.85929 104.492 1.81131 104.715 1.81131C105.216 1.81131 105.602 1.97705 105.873 2.30854C106.147 2.64002 106.285 3.07401 106.285 3.61049C106.285 3.6323 106.285 3.65411 106.285 3.67592C106.28 3.78496 106.235 3.87655 106.147 3.9507C106.064 4.02049 105.966 4.05538 105.853 4.05538H103.975C103.94 4.05538 103.927 4.07283 103.936 4.10772C103.98 4.39559 104.093 4.61585 104.276 4.76851C104.459 4.92117 104.688 4.9975 104.963 4.9975C105.146 4.9975 105.325 4.9626 105.5 4.89282C105.552 4.87101 105.604 4.8601 105.657 4.8601C105.696 4.8601 105.733 4.86447 105.768 4.87319C105.864 4.89936 105.934 4.95388 105.977 5.03675C106.008 5.09345 106.023 5.15233 106.023 5.2134C106.023 5.27446 106.008 5.33334 105.977 5.39004C105.947 5.44238 105.903 5.48164 105.846 5.50781C105.515 5.66919 105.177 5.74988 104.832 5.74988ZM103.916 3.36842C103.916 3.39459 103.932 3.40767 103.962 3.40767H105.388C105.423 3.40767 105.441 3.39241 105.441 3.36188C105.432 3.11326 105.369 2.92135 105.251 2.78614C105.133 2.64657 104.959 2.57678 104.728 2.57678C104.531 2.57678 104.357 2.64439 104.204 2.7796C104.012 2.95406 103.916 3.15034 103.916 3.36842Z" fill="#313131"/>
<path d="M107.961 5.74988C107.586 5.74988 107.213 5.6452 106.843 5.43584C106.755 5.38786 106.703 5.30935 106.686 5.20031C106.681 5.1785 106.679 5.15888 106.679 5.14143C106.679 5.05856 106.705 4.98223 106.758 4.91244C106.819 4.82957 106.902 4.77941 107.006 4.76197C107.032 4.76197 107.056 4.76197 107.078 4.76197C107.157 4.76197 107.229 4.78159 107.294 4.82085C107.53 4.9517 107.761 5.01712 107.988 5.01712C108.166 5.01712 108.302 4.98223 108.393 4.91244C108.485 4.83829 108.531 4.74016 108.531 4.61803C108.531 4.57005 108.515 4.52426 108.485 4.48064C108.459 4.43266 108.428 4.39341 108.393 4.36288C108.358 4.33234 108.304 4.29963 108.23 4.26474C108.155 4.22548 108.094 4.19713 108.046 4.17969C107.998 4.15788 107.927 4.12735 107.831 4.08809C107.791 4.07501 107.763 4.0641 107.745 4.05538C107.606 4.00304 107.484 3.9507 107.379 3.89836C107.274 3.84166 107.168 3.76969 107.059 3.68246C106.95 3.59523 106.864 3.49055 106.803 3.36842C106.747 3.24629 106.718 3.11108 106.718 2.96279C106.718 2.62258 106.845 2.34561 107.098 2.13189C107.355 1.91817 107.693 1.81131 108.112 1.81131C108.448 1.81131 108.77 1.89854 109.08 2.07301C109.172 2.12099 109.224 2.19514 109.237 2.29545C109.242 2.31726 109.244 2.33907 109.244 2.36088C109.244 2.43939 109.22 2.50918 109.172 2.57024C109.111 2.65311 109.028 2.70327 108.923 2.72072C108.897 2.72508 108.869 2.72726 108.838 2.72726C108.768 2.72726 108.701 2.71199 108.635 2.68146C108.461 2.59423 108.295 2.55061 108.138 2.55061C107.977 2.55061 107.855 2.58332 107.772 2.64875C107.689 2.71417 107.647 2.80141 107.647 2.91045C107.647 2.94098 107.65 2.96933 107.654 2.9955C107.663 3.02167 107.676 3.04784 107.693 3.07401C107.715 3.09582 107.735 3.11763 107.752 3.13943C107.769 3.15688 107.796 3.17651 107.831 3.19832C107.87 3.21576 107.9 3.23103 107.922 3.24411C107.948 3.2572 107.985 3.27464 108.033 3.29645C108.086 3.3139 108.125 3.32916 108.151 3.34225C108.177 3.35097 108.219 3.36624 108.275 3.38805C108.337 3.40986 108.38 3.42512 108.406 3.43384C108.528 3.48182 108.629 3.52326 108.707 3.55815C108.79 3.59304 108.882 3.64538 108.982 3.71517C109.087 3.7806 109.17 3.85038 109.231 3.92453C109.292 3.99432 109.344 4.08591 109.388 4.19931C109.431 4.30836 109.453 4.43048 109.453 4.56569C109.453 4.91026 109.322 5.19377 109.061 5.41621C108.799 5.63866 108.432 5.74988 107.961 5.74988Z" fill="#313131"/>
<path d="M111.627 5.74988C111.086 5.74988 110.639 5.57323 110.286 5.21994C109.937 4.86665 109.762 4.38905 109.762 3.78714C109.762 3.49491 109.81 3.2223 109.906 2.96933C110.007 2.71635 110.138 2.50699 110.299 2.34125C110.465 2.17551 110.652 2.04684 110.862 1.95525C111.071 1.85929 111.287 1.81131 111.509 1.81131C112.011 1.81131 112.397 1.97705 112.667 2.30854C112.942 2.64002 113.079 3.07401 113.079 3.61049C113.079 3.6323 113.079 3.65411 113.079 3.67592C113.075 3.78496 113.029 3.87655 112.942 3.9507C112.859 4.02049 112.761 4.05538 112.648 4.05538H110.77C110.735 4.05538 110.722 4.07283 110.731 4.10772C110.774 4.39559 110.888 4.61585 111.071 4.76851C111.254 4.92117 111.483 4.9975 111.758 4.9975C111.941 4.9975 112.12 4.9626 112.294 4.89282C112.347 4.87101 112.399 4.8601 112.451 4.8601C112.491 4.8601 112.528 4.86447 112.563 4.87319C112.659 4.89936 112.728 4.95388 112.772 5.03675C112.802 5.09345 112.818 5.15233 112.818 5.2134C112.818 5.27446 112.802 5.33334 112.772 5.39004C112.741 5.44238 112.698 5.48164 112.641 5.50781C112.31 5.66919 111.972 5.74988 111.627 5.74988ZM110.711 3.36842C110.711 3.39459 110.726 3.40767 110.757 3.40767H112.183C112.218 3.40767 112.235 3.39241 112.235 3.36188C112.227 3.11326 112.164 2.92135 112.046 2.78614C111.928 2.64657 111.754 2.57678 111.522 2.57678C111.326 2.57678 111.152 2.64439 110.999 2.7796C110.807 2.95406 110.711 3.15034 110.711 3.36842Z" fill="#313131"/>
<path d="M114.069 5.65829C113.96 5.65829 113.869 5.62121 113.794 5.54706C113.72 5.46855 113.683 5.37696 113.683 5.27228V2.29545C113.683 2.18641 113.72 2.09482 113.794 2.02067C113.869 1.94652 113.96 1.90945 114.069 1.90945H114.102C114.211 1.90945 114.305 1.94652 114.383 2.02067C114.466 2.09046 114.514 2.17987 114.527 2.28891L114.553 2.55715C114.553 2.56588 114.558 2.57024 114.566 2.57024C114.575 2.57024 114.582 2.56588 114.586 2.55715C114.721 2.32162 114.883 2.13843 115.07 2.00759C115.258 1.87674 115.45 1.81131 115.646 1.81131C115.668 1.81131 115.69 1.81131 115.711 1.81131C115.82 1.81567 115.903 1.86583 115.96 1.96179C115.999 2.02721 116.019 2.09918 116.019 2.17769C116.019 2.20822 116.017 2.23875 116.012 2.26928L115.993 2.36742C115.971 2.46338 115.916 2.53971 115.829 2.59641C115.742 2.65311 115.644 2.68146 115.535 2.68146C115.53 2.68146 115.526 2.68146 115.522 2.68146C115.365 2.68146 115.21 2.73816 115.057 2.85156C114.904 2.96497 114.778 3.13943 114.678 3.37496C114.665 3.40549 114.658 3.43603 114.658 3.46656V5.27228C114.658 5.37696 114.621 5.46855 114.547 5.54706C114.473 5.62121 114.381 5.65829 114.272 5.65829H114.069Z" fill="#313131"/>
<path d="M117.663 5.65829C117.549 5.65829 117.445 5.62557 117.349 5.56015C117.253 5.49036 117.187 5.40095 117.153 5.29191L116.119 2.26928C116.11 2.23875 116.106 2.20822 116.106 2.17769C116.106 2.12535 116.123 2.07301 116.158 2.02067C116.215 1.94652 116.289 1.90945 116.381 1.90945H116.603C116.716 1.90945 116.819 1.94434 116.91 2.01413C117.002 2.07955 117.065 2.16679 117.1 2.27583L117.539 3.77405C117.573 3.91799 117.628 4.12735 117.702 4.40213C117.776 4.67691 117.82 4.84266 117.833 4.89936C117.837 4.90808 117.844 4.91244 117.853 4.91244C117.866 4.91244 117.874 4.90808 117.879 4.89936C117.931 4.67691 118.029 4.30181 118.173 3.77405L118.612 2.27583C118.646 2.16679 118.71 2.07955 118.801 2.01413C118.893 1.94434 118.995 1.90945 119.109 1.90945H119.279C119.375 1.90945 119.451 1.94652 119.508 2.02067C119.543 2.07301 119.56 2.12535 119.56 2.17769C119.56 2.20822 119.556 2.24093 119.547 2.27583L118.54 5.29191C118.5 5.40095 118.433 5.49036 118.337 5.56015C118.245 5.62557 118.143 5.65829 118.029 5.65829H117.663Z" fill="#313131"/>
<path d="M121.662 5.74988C121.121 5.74988 120.674 5.57323 120.321 5.21994C119.972 4.86665 119.798 4.38905 119.798 3.78714C119.798 3.49491 119.846 3.2223 119.941 2.96933C120.042 2.71635 120.173 2.50699 120.334 2.34125C120.5 2.17551 120.687 2.04684 120.897 1.95525C121.106 1.85929 121.322 1.81131 121.544 1.81131C122.046 1.81131 122.432 1.97705 122.702 2.30854C122.977 2.64002 123.115 3.07401 123.115 3.61049C123.115 3.6323 123.115 3.65411 123.115 3.67592C123.11 3.78496 123.064 3.87655 122.977 3.9507C122.894 4.02049 122.796 4.05538 122.683 4.05538H120.805C120.77 4.05538 120.757 4.07283 120.766 4.10772C120.809 4.39559 120.923 4.61585 121.106 4.76851C121.289 4.92117 121.518 4.9975 121.793 4.9975C121.976 4.9975 122.155 4.9626 122.329 4.89282C122.382 4.87101 122.434 4.8601 122.486 4.8601C122.526 4.8601 122.563 4.86447 122.598 4.87319C122.694 4.89936 122.763 4.95388 122.807 5.03675C122.838 5.09345 122.853 5.15233 122.853 5.2134C122.853 5.27446 122.838 5.33334 122.807 5.39004C122.777 5.44238 122.733 5.48164 122.676 5.50781C122.345 5.66919 122.007 5.74988 121.662 5.74988ZM120.746 3.36842C120.746 3.39459 120.761 3.40767 120.792 3.40767H122.218C122.253 3.40767 122.271 3.39241 122.271 3.36188C122.262 3.11326 122.199 2.92135 122.081 2.78614C121.963 2.64657 121.789 2.57678 121.557 2.57678C121.361 2.57678 121.187 2.64439 121.034 2.7796C120.842 2.95406 120.746 3.15034 120.746 3.36842Z" fill="#313131"/>
<path d="M125.04 5.74988C124.569 5.74988 124.194 5.57541 123.915 5.22648C123.64 4.87755 123.502 4.39777 123.502 3.78714C123.502 3.19832 123.657 2.7229 123.967 2.36088C124.281 1.9945 124.652 1.81131 125.079 1.81131C125.267 1.81131 125.43 1.84402 125.57 1.90945C125.714 1.97051 125.856 2.06429 125.995 2.19077C125.999 2.19514 126.006 2.19514 126.015 2.19077C126.023 2.18641 126.028 2.17987 126.028 2.17115L125.989 1.63466V0.699091C125.989 0.590049 126.026 0.498455 126.1 0.424307C126.178 0.350159 126.27 0.313085 126.375 0.313085H126.59C126.695 0.313085 126.785 0.350159 126.859 0.424307C126.937 0.498455 126.976 0.590049 126.976 0.699091V5.27228C126.976 5.37696 126.937 5.46855 126.859 5.54706C126.785 5.62121 126.695 5.65829 126.59 5.65829H126.532C126.427 5.65829 126.335 5.62557 126.257 5.56015C126.178 5.49472 126.128 5.41185 126.106 5.31153L126.1 5.27882C126.095 5.27446 126.089 5.27228 126.08 5.27228C126.076 5.27228 126.071 5.27446 126.067 5.27882C125.74 5.59286 125.398 5.74988 125.04 5.74988ZM125.295 4.93861C125.548 4.93861 125.768 4.82303 125.956 4.59186C125.978 4.56569 125.989 4.53734 125.989 4.50681V2.95624C125.989 2.92135 125.975 2.893 125.949 2.87119C125.753 2.70545 125.535 2.62258 125.295 2.62258C125.073 2.62258 124.887 2.72508 124.739 2.93007C124.591 3.13507 124.516 3.4164 124.516 3.77405C124.516 4.15788 124.582 4.44793 124.713 4.6442C124.848 4.84048 125.042 4.93861 125.295 4.93861Z" fill="#313131"/>
<path d="M128.385 5.74988C128.21 5.74988 128.064 5.68882 127.947 5.56669C127.833 5.44456 127.776 5.29191 127.776 5.10872C127.776 4.92553 127.833 4.77287 127.947 4.65074C128.064 4.52862 128.21 4.46756 128.385 4.46756C128.559 4.46756 128.705 4.52862 128.823 4.65074C128.941 4.77287 129 4.92553 129 5.10872C129 5.29191 128.941 5.44456 128.823 5.56669C128.705 5.68882 128.559 5.74988 128.385 5.74988Z" fill="#313131"/>
<path fill-rule="evenodd" clip-rule="evenodd" d="M36.3425 5.97371C37.7917 5.97371 38.9664 4.79892 38.9664 3.34975C38.9664 1.90057 37.7917 0.725778 36.3425 0.725778C34.8933 0.725778 33.7185 1.90057 33.7185 3.34975C33.7185 4.79892 34.8933 5.97371 36.3425 5.97371ZM36.3425 6.69949C38.1925 6.69949 39.6922 5.19976 39.6922 3.34975C39.6922 1.49973 38.1925 0 36.3425 0C34.4925 0 32.9927 1.49973 32.9927 3.34975C32.9927 5.19976 34.4925 6.69949 36.3425 6.69949Z" fill="#313131"/>
<path d="M36.432 5.32033C36.9144 5.32033 37.3113 5.1294 37.6178 4.77265L37.2259 4.31038C37.0249 4.52644 36.7737 4.67718 36.4571 4.67718C35.8693 4.67718 35.4874 4.18979 35.4874 3.38083C35.4874 2.58192 35.9095 2.09955 36.4722 2.09955C36.7536 2.09955 36.9697 2.23019 37.1556 2.41108L37.5475 1.93876C37.3063 1.68753 36.9295 1.46143 36.4571 1.46143C35.5175 1.46143 34.7287 2.17995 34.7287 3.40595C34.7287 4.64703 35.4924 5.32033 36.432 5.32033Z" fill="#313131"/>
</g>
</svg>
