<svg width="39" height="35" viewBox="0 0 39 35" fill="none" xmlns="http://www.w3.org/2000/svg">
<path d="M11.0703 7.22929C11.0963 7.22456 11.1231 7.2251 11.149 7.23089C11.1748 7.23668 11.1993 7.24759 11.2209 7.26299C11.2424 7.27838 11.2607 7.29794 11.2746 7.32051C11.2885 7.34308 11.2977 7.36821 11.3017 7.39441L11.6243 9.33449C11.629 9.36057 11.6284 9.38735 11.6226 9.41321C11.6169 9.43907 11.6059 9.46351 11.5906 9.48508C11.5752 9.50666 11.5556 9.52494 11.533 9.53883C11.5105 9.55273 11.4853 9.56195 11.4591 9.56597C11.4232 9.56767 11.3874 9.5607 11.3547 9.54565C11.3224 9.53308 11.2938 9.51236 11.2719 9.48551C11.2499 9.45865 11.2352 9.42658 11.2293 9.39239L10.9068 7.45229C10.9004 7.40127 10.9138 7.34974 10.9442 7.30827C10.9746 7.26681 11.0197 7.23854 11.0703 7.22929Z" fill="#040000"/>
<path d="M10.3018 10.0203C10.2758 10.035 10.2468 10.0436 10.217 10.0455C10.1872 10.0473 10.1574 10.0422 10.1299 10.0307C10.0871 10.0148 10.0515 9.98396 10.0296 9.94389L9.0627 8.22988C9.04877 8.20674 9.03971 8.18102 9.03608 8.15427C9.03245 8.12751 9.03431 8.10029 9.04156 8.07428C9.04881 8.04828 9.0613 8.02402 9.07826 8.003C9.09521 7.98199 9.11628 7.96466 9.14017 7.95207C9.16326 7.93835 9.18886 7.9294 9.21547 7.92573C9.24208 7.92206 9.26915 7.92375 9.29509 7.93071C9.32103 7.93767 9.34532 7.94977 9.36652 7.96626C9.38772 7.98275 9.40539 8.0033 9.41852 8.02673L10.3854 9.74074C10.399 9.76442 10.4076 9.79062 10.4107 9.81773C10.4138 9.84485 10.4114 9.87232 10.4036 9.89847C10.3958 9.92462 10.3827 9.94889 10.3652 9.96983C10.3477 9.99077 10.3261 10.0079 10.3018 10.0203Z" fill="#040000"/>
<path d="M9.37559 10.8066C9.34872 10.8391 9.31204 10.8621 9.27104 10.872C9.23004 10.882 9.18691 10.8785 9.1481 10.8619C9.12693 10.8539 9.10739 10.8422 9.09042 10.8272L7.58226 9.54683C7.56087 9.52904 7.54334 9.50708 7.53076 9.48227C7.51817 9.45746 7.51077 9.43034 7.50904 9.40257C7.50731 9.37481 7.51128 9.34698 7.5207 9.32081C7.53011 9.29463 7.54477 9.27066 7.56379 9.25036C7.58133 9.2286 7.6032 9.21073 7.62802 9.19789C7.65284 9.18506 7.68006 9.17753 7.70795 9.1758C7.73584 9.17406 7.76378 9.17815 7.79 9.18781C7.81623 9.19747 7.84016 9.21248 7.86026 9.23189L9.34254 10.5248C9.36346 10.541 9.38095 10.5611 9.39396 10.5841C9.40698 10.6071 9.41527 10.6325 9.41835 10.6587C9.42143 10.685 9.41923 10.7116 9.41188 10.737C9.40454 10.7624 9.3922 10.786 9.37559 10.8066Z" fill="#040000"/>
<path d="M6.78724 10.9385L8.62948 11.6308C8.65463 11.6392 8.67779 11.6527 8.6975 11.6704C8.71721 11.6881 8.73305 11.7097 8.74402 11.7338C8.755 11.758 8.76087 11.7841 8.76128 11.8106C8.76169 11.8371 8.75663 11.8634 8.74641 11.8879C8.72805 11.9379 8.69062 11.9785 8.64234 12.001C8.59406 12.0234 8.53886 12.0258 8.48881 12.0076L6.64658 11.3153C6.59725 11.2964 6.55732 11.2589 6.53545 11.2108C6.51357 11.1627 6.51149 11.1079 6.52965 11.0583C6.54862 11.0088 6.58611 10.9686 6.63419 10.9462C6.68227 10.9239 6.73716 10.9211 6.78724 10.9385Z" fill="#040000"/>
<path d="M6.36171 12.9L8.32669 12.9162C8.38043 12.9173 8.43159 12.9395 8.46906 12.978C8.50652 13.0166 8.52727 13.0683 8.5268 13.1221C8.52673 13.1484 8.52141 13.1745 8.51116 13.1988C8.5009 13.2231 8.48591 13.2451 8.46706 13.2635C8.4482 13.2819 8.42587 13.2964 8.40135 13.3061C8.37684 13.3158 8.35065 13.3205 8.3243 13.3199L6.35705 13.3004C6.33182 13.3013 6.3067 13.2964 6.28367 13.2861C6.24633 13.2705 6.21436 13.2443 6.19173 13.2108C6.16911 13.1772 6.15683 13.1378 6.15639 13.0973C6.1569 13.0709 6.16262 13.0448 6.17322 13.0206C6.18382 12.9963 6.19909 12.9745 6.21816 12.9561C6.23723 12.9378 6.25972 12.9234 6.28435 12.9138C6.30898 12.9042 6.33527 12.8995 6.36171 12.9Z" fill="#040000"/>
<path d="M8.43967 14.2474C8.46543 14.2368 8.49311 14.2316 8.52096 14.2323C8.5488 14.2329 8.57621 14.2394 8.60144 14.2512C8.62668 14.2629 8.6492 14.2798 8.66756 14.3008C8.68593 14.3217 8.69975 14.3463 8.70814 14.3728C8.7183 14.3986 8.7231 14.4262 8.72225 14.4539C8.72139 14.4817 8.71488 14.5089 8.70314 14.534C8.6914 14.5592 8.67467 14.5816 8.65396 14.6001C8.63325 14.6185 8.609 14.6325 8.58269 14.6413L6.72777 15.2938C6.68141 15.3106 6.63055 15.31 6.58456 15.2923C6.55824 15.2815 6.53446 15.2654 6.51474 15.2449C6.49502 15.2244 6.4798 15.2 6.47005 15.1733C6.45945 15.1476 6.45431 15.1199 6.45496 15.092C6.45561 15.0642 6.46202 15.0368 6.47382 15.0115C6.48561 14.9863 6.50252 14.9638 6.52347 14.9454C6.54441 14.9271 6.56894 14.9133 6.5955 14.9049L8.43967 14.2474Z" fill="#040000"/>
<path d="M13.9806 16.7927L14.9481 18.5039C14.9616 18.5271 14.9703 18.5528 14.9738 18.5795C14.9772 18.6062 14.9752 18.6332 14.968 18.6591C14.9608 18.685 14.9484 18.7092 14.9317 18.7303C14.915 18.7513 14.8942 18.7688 14.8706 18.7817C14.8445 18.7962 14.8156 18.8049 14.7859 18.8072C14.7561 18.8095 14.7262 18.8053 14.6982 18.795C14.6557 18.7774 14.6205 18.7457 14.5985 18.7053L13.631 16.9941C13.6175 16.9709 13.6088 16.9452 13.6054 16.9185C13.6019 16.8918 13.6039 16.8648 13.6111 16.8389C13.6183 16.813 13.6307 16.7888 13.6474 16.7677C13.6641 16.7467 13.6849 16.7292 13.7085 16.7163C13.7313 16.7033 13.7565 16.6949 13.7826 16.6916C13.8087 16.6884 13.8352 16.6904 13.8606 16.6975C13.8859 16.7046 13.9096 16.7167 13.9302 16.7331C13.9508 16.7494 13.9679 16.7697 13.9806 16.7927Z" fill="#040000"/>
<path d="M34.0676 16.4393C34.0887 16.4227 34.1129 16.4105 34.1388 16.4035C34.1647 16.3964 34.1917 16.3946 34.2183 16.3981C34.2449 16.4017 34.2705 16.4105 34.2937 16.4241C34.3168 16.4376 34.337 16.4557 34.353 16.4772C34.3857 16.5202 34.4001 16.5743 34.393 16.6278C34.3859 16.6813 34.3579 16.7298 34.3151 16.7627L32.7483 17.9516C32.7209 17.9729 32.6885 17.9866 32.6541 17.9912C32.6197 17.9959 32.5848 17.9913 32.5528 17.978C32.5179 17.9661 32.4875 17.9438 32.4656 17.9142C32.4329 17.8712 32.4185 17.8171 32.4256 17.7636C32.4328 17.7101 32.4608 17.6616 32.5036 17.6287L34.0676 16.4393Z" fill="#040000"/>
<path d="M35.1235 18.5836L33.2525 19.1685C33.2087 19.1827 33.1613 19.1807 33.1188 19.163C33.0914 19.1521 33.0667 19.1352 33.0466 19.1136C33.0265 19.0919 33.0114 19.066 33.0026 19.0378C32.9919 19.0117 32.987 18.9835 32.9881 18.9553C32.9892 18.927 32.9964 18.8993 33.009 18.8741C33.0217 18.8488 33.0396 18.8265 33.0616 18.8088C33.0836 18.791 33.1091 18.7781 33.1365 18.771L35.0076 18.1861C35.0588 18.171 35.1139 18.1766 35.161 18.2017C35.2081 18.2267 35.2436 18.2692 35.2597 18.3201C35.2698 18.3463 35.2742 18.3742 35.2727 18.4022C35.2711 18.4302 35.2637 18.4575 35.2508 18.4824C35.2379 18.5073 35.22 18.5292 35.198 18.5466C35.1761 18.5641 35.1507 18.5767 35.1235 18.5836Z" fill="#040000"/>
<path d="M35.2855 20.551L33.3173 20.461C33.2953 20.4595 33.2734 20.4553 33.2524 20.4483C33.2133 20.433 33.18 20.4057 33.1575 20.3702C33.1349 20.3348 33.1241 20.293 33.1268 20.2511C33.1303 20.1983 33.1541 20.149 33.1933 20.1135C33.2324 20.0779 33.2838 20.0589 33.3367 20.0606L35.3048 20.1506C35.3576 20.1541 35.407 20.1779 35.4425 20.2171C35.478 20.2562 35.497 20.3076 35.4954 20.3605C35.4919 20.4132 35.4681 20.4626 35.4289 20.4981C35.3898 20.5336 35.3384 20.5526 35.2855 20.551Z" fill="#040000"/>
<path d="M32.8417 21.4608C32.8624 21.4123 32.9014 21.3738 32.9502 21.3537C32.999 21.3336 33.0538 21.3336 33.1027 21.3535L34.9165 22.1164C34.9408 22.1264 34.9629 22.141 34.9815 22.1596C35.0001 22.1781 35.0148 22.2002 35.0248 22.2245C35.0348 22.2488 35.0398 22.2748 35.0397 22.301C35.0395 22.3273 35.0342 22.3533 35.0239 22.3774C35.0038 22.4261 34.9655 22.4649 34.9171 22.4856C34.8687 22.5063 34.8142 22.5072 34.7651 22.4882L32.9541 21.7258C32.9291 21.7161 32.9064 21.7014 32.8871 21.6827C32.8679 21.664 32.8526 21.6417 32.8421 21.617C32.8316 21.5923 32.8262 21.5658 32.8261 21.539C32.826 21.5122 32.8313 21.4856 32.8417 21.4608Z" fill="#040000"/>
<path d="M32.1576 22.5081C32.1757 22.487 32.198 22.47 32.223 22.4582C32.2481 22.4463 32.2754 22.4398 32.3031 22.4391C32.3309 22.4384 32.3584 22.4436 32.3841 22.4542C32.4097 22.4649 32.4328 22.4807 32.4519 22.5009L33.8966 23.8363C33.9175 23.8545 33.9345 23.8767 33.9464 23.9017C33.9583 23.9267 33.965 23.9539 33.9659 23.9815C33.9668 24.0092 33.9621 24.0368 33.9519 24.0625C33.9416 24.0883 33.9262 24.1116 33.9066 24.1311C33.8789 24.1613 33.8426 24.1822 33.8027 24.1912C33.7627 24.2002 33.721 24.1967 33.683 24.1814C33.6595 24.1733 33.6381 24.1601 33.6202 24.1428L32.1783 22.8079C32.1563 22.7903 32.1381 22.7682 32.125 22.7432C32.1119 22.7182 32.1041 22.6907 32.1021 22.6625C32.1002 22.6343 32.1041 22.6061 32.1136 22.5795C32.1232 22.5529 32.1382 22.5286 32.1576 22.5081Z" fill="#040000"/>
<path d="M31.4417 23.388L32.3433 25.1362C32.3557 25.1601 32.3632 25.1862 32.3654 25.213C32.3676 25.2398 32.3645 25.2668 32.3563 25.2924C32.348 25.318 32.3348 25.3418 32.3174 25.3623C32.2999 25.3827 32.2786 25.3996 32.2546 25.4118C32.2292 25.4249 32.2012 25.4323 32.1727 25.4333C32.1441 25.4344 32.1157 25.429 32.0894 25.4177C32.0442 25.4003 32.007 25.367 31.9846 25.3241L31.0835 23.5731C31.0707 23.5493 31.0629 23.5231 31.0605 23.4962C31.0581 23.4693 31.0611 23.4422 31.0694 23.4165C31.0776 23.3907 31.091 23.367 31.1087 23.3465C31.1264 23.3261 31.148 23.3094 31.1723 23.2975C31.1958 23.2854 31.2216 23.2781 31.248 23.2761C31.2744 23.2741 31.3009 23.2775 31.326 23.2859C31.3512 23.2943 31.3743 23.3077 31.3942 23.3252C31.414 23.3428 31.4302 23.3641 31.4417 23.388Z" fill="#040000"/>
<path d="M23.7812 22.0118L25.6523 21.4269C25.7035 21.4119 25.7585 21.4175 25.8057 21.4425C25.8528 21.4676 25.8883 21.5101 25.9044 21.5609C25.914 21.5873 25.9181 21.6154 25.9163 21.6435C25.9145 21.6715 25.907 21.6989 25.8942 21.7239C25.8813 21.7489 25.8635 21.771 25.8417 21.7888C25.8199 21.8065 25.7948 21.8196 25.7677 21.8272L23.8972 22.4093C23.8533 22.4229 23.8063 22.422 23.763 22.4066C23.7354 22.3952 23.7107 22.3778 23.6907 22.3557C23.6707 22.3335 23.6559 22.3072 23.6473 22.2787C23.6366 22.2525 23.6317 22.2243 23.6328 22.1961C23.6339 22.1678 23.641 22.1401 23.6537 22.1149C23.6664 22.0896 23.6843 22.0674 23.7063 22.0496C23.7283 22.0318 23.7538 22.0189 23.7812 22.0118Z" fill="#040000"/>
<path d="M3.02313 16.4064C3.1089 16.3982 3.1917 16.3708 3.26545 16.3263C3.3392 16.2817 3.402 16.2212 3.4492 16.1491C3.4964 16.077 3.52681 15.9952 3.53817 15.9098C3.54952 15.8244 3.54152 15.7376 3.51479 15.6557C2.92382 13.6161 3.07663 11.4328 3.94594 9.49542C4.42453 8.42103 5.11163 7.45234 5.96743 6.64551C6.82322 5.83868 7.83066 5.20977 8.93135 4.79524C10.6669 4.13277 12.566 4.02918 14.3633 4.49895C14.5201 4.53974 14.6851 4.53556 14.8396 4.48688C14.9941 4.43821 15.1318 4.34701 15.2369 4.22373C16.6374 2.60087 18.5083 1.45421 20.59 0.942878C22.6718 0.431547 24.861 0.580901 26.854 1.37022C28.8457 2.16325 30.5407 3.5571 31.7036 5.358C32.8665 7.1589 33.4394 9.27737 33.3427 11.4189C33.3345 11.5819 33.3727 11.7438 33.4529 11.8859C33.5331 12.028 33.652 12.1444 33.7957 12.2217C35.4173 13.0945 36.7277 14.4496 37.5457 16.0997C38.0704 17.1504 38.3818 18.2947 38.462 19.4665C38.5422 20.6382 38.3895 21.8143 38.0128 22.9267C37.3264 24.96 35.934 26.6801 34.0881 27.7747C34.0132 27.8163 33.9485 27.8742 33.8988 27.944C33.8491 28.0139 33.8156 28.094 33.8009 28.1784C33.7861 28.2629 33.7905 28.3496 33.8135 28.4321C33.8366 28.5147 33.8779 28.591 33.9343 28.6556C34.6662 29.5302 34.882 30.3629 34.5759 31.1234C33.9688 32.6484 31.7394 32.4255 29.4343 31.9595C27.4623 31.5582 25.182 30.8891 23.6312 30.4C23.4783 30.3518 23.3365 30.2736 23.2142 30.17C23.0918 30.0664 22.9912 29.9395 22.9184 29.7967C22.8456 29.6538 22.802 29.4979 22.7901 29.338C22.7782 29.1781 22.7982 29.0175 22.8491 28.8654C22.9579 28.5631 23.1804 28.3152 23.4693 28.1745C23.7581 28.0338 24.0905 28.0113 24.3956 28.1119C27.5977 29.1156 29.7185 29.5956 31.0253 29.7883C31.0768 29.795 31.129 29.7848 31.1741 29.7591C31.2192 29.7335 31.2547 29.6938 31.2753 29.6461C31.2958 29.5985 31.3002 29.5454 31.2879 29.495C31.2756 29.4446 31.2471 29.3996 31.2069 29.3668C30.1421 28.5658 29.0163 27.8493 27.8398 27.2239C24.6435 25.509 21.3433 23.9954 17.9583 22.6919C14.7506 21.4062 11.4651 20.3239 8.12134 19.4514C6.92958 19.1379 5.71572 18.9154 4.49025 18.7859C4.43729 18.78 4.38389 18.792 4.33854 18.82C4.29319 18.848 4.25852 18.8903 4.24004 18.9403C4.22156 18.9903 4.22032 19.045 4.23655 19.0958C4.25278 19.1465 4.28553 19.1904 4.32958 19.2204C5.38784 19.9681 7.21813 21.068 10.1796 22.5258C10.4642 22.6617 10.686 22.9015 10.7992 23.196C10.9124 23.4904 10.9086 23.8169 10.7884 24.1086C10.6635 24.3958 10.4319 24.6232 10.1425 24.7428C9.85308 24.8625 9.52852 24.865 9.23729 24.7499L9.14855 24.7092C7.35672 23.8524 5.6094 22.9054 3.9133 21.8719C1.96507 20.6406 0.244555 19.2925 0.842743 17.7834C1.14423 17.0015 1.87817 16.541 3.02313 16.4064ZM6.17616 15.9011C6.28137 16.1326 6.43972 16.336 6.63836 16.4947C6.837 16.6534 7.07031 16.7631 7.3193 16.8147L7.37855 16.8262C7.38871 16.791 7.41015 16.7602 7.43955 16.7385L8.95697 15.4873C8.9776 15.47 9.0015 15.4571 9.02723 15.4492C9.05296 15.4413 9.08002 15.4386 9.10679 15.4414C9.13356 15.4441 9.15951 15.4522 9.1831 15.4652C9.20669 15.4781 9.22743 15.4957 9.24411 15.5168C9.26178 15.5373 9.27509 15.5611 9.28321 15.5869C9.29133 15.6127 9.29409 15.6399 9.29133 15.6667C9.28856 15.6936 9.28033 15.7197 9.26714 15.7433C9.25395 15.7669 9.23608 15.7875 9.21462 15.8039L7.84371 16.9343L7.98198 16.9612C8.42221 17.0468 8.87787 17.1735 9.34875 17.2974L9.84612 16.4569C9.85915 16.4339 9.87667 16.4136 9.89764 16.3975C9.91861 16.3813 9.94261 16.3695 9.96822 16.3627C9.99383 16.356 10.0205 16.3544 10.0468 16.3581C10.073 16.3619 10.0982 16.3708 10.1209 16.3844C10.144 16.3978 10.1642 16.4156 10.1804 16.4368C10.1965 16.4581 10.2083 16.4823 10.215 16.5082C10.2217 16.534 10.2231 16.5609 10.2193 16.5873C10.2155 16.6137 10.2065 16.6391 10.1928 16.662L9.75525 17.4057C10.1279 17.5075 10.5113 17.6143 10.9021 17.7284L11.0327 17.0568C11.043 17.0041 11.0735 16.9576 11.1178 16.9273C11.162 16.897 11.2165 16.8854 11.2692 16.8949C11.3216 16.905 11.3678 16.9357 11.3977 16.9799C11.4275 17.0242 11.4385 17.0784 11.4284 17.1308L11.29 17.842C11.6887 17.9605 12.0975 18.0869 12.5115 18.2173L12.3491 17.2455C12.3449 17.2193 12.3459 17.1926 12.352 17.1667C12.3582 17.1409 12.3694 17.1166 12.385 17.0951C12.4006 17.0737 12.4203 17.0555 12.443 17.0417C12.4656 17.0279 12.4908 17.0187 12.517 17.0146C12.5695 17.0066 12.623 17.0194 12.6662 17.0502C12.7094 17.0811 12.739 17.1275 12.7485 17.1797L12.9418 18.3537C13.5094 18.5374 14.0929 18.7299 14.6826 18.9355C14.798 18.9766 14.9209 18.9927 15.0431 18.9826C15.1652 18.9726 15.2838 18.9366 15.391 18.8771C16.2178 18.41 16.9332 17.7687 17.4875 16.9976C17.6735 16.7372 17.9552 16.5612 18.2708 16.5084C18.5864 16.4556 18.9101 16.5302 19.1707 16.7159C19.4312 16.9024 19.6071 17.1847 19.6598 17.5007C19.7125 17.8168 19.6378 18.1409 19.4519 18.4019C19.0916 18.9031 18.6806 19.3658 18.2255 19.7829C18.1885 19.8162 18.1609 19.8586 18.1452 19.9058C18.1295 19.9531 18.1263 20.0036 18.136 20.0524C18.1457 20.1012 18.1679 20.1467 18.2005 20.1843C18.233 20.222 18.2748 20.2506 18.3217 20.2673L19.2793 20.644L20.0941 20.9723C20.1401 20.9923 20.1906 20.9997 20.2405 20.9941C20.2904 20.9884 20.338 20.9698 20.3784 20.94C20.4188 20.9103 20.4508 20.8704 20.4711 20.8245C20.4913 20.7786 20.4992 20.7281 20.4939 20.6782C20.4518 20.0772 20.4711 19.4735 20.5516 18.8765C20.5897 18.571 20.7409 18.2908 20.9755 18.0914C21.21 17.8919 21.5108 17.7877 21.8185 17.7992C21.985 17.8082 22.1478 17.8517 22.2967 17.9268C22.4456 18.0019 22.5773 18.107 22.6835 18.2355C22.7898 18.3641 22.8682 18.5132 22.914 18.6736C22.9597 18.8339 22.9718 19.002 22.9493 19.1672C22.823 20.1057 22.9021 21.0605 23.1811 21.9654C23.2188 22.0832 23.2814 22.1915 23.3646 22.283C23.4479 22.3745 23.5499 22.447 23.6637 22.4956C24.2473 22.7576 24.816 23.0205 25.37 23.2845L26.3117 22.5686C26.333 22.5523 26.3573 22.5404 26.3832 22.5336C26.4092 22.5268 26.4362 22.5252 26.4628 22.529C26.4893 22.5328 26.5148 22.5419 26.5378 22.5557C26.5608 22.5695 26.5808 22.5877 26.5967 22.6094C26.6294 22.6523 26.6437 22.7065 26.6366 22.76C26.6295 22.8135 26.6015 22.862 26.5587 22.8949L25.782 23.4848C26.1732 23.6721 26.5525 23.8602 26.9261 24.0471L27.3126 23.4457C27.3266 23.4232 27.3451 23.4037 27.3668 23.3885C27.3885 23.3732 27.413 23.3624 27.439 23.3568C27.4649 23.3512 27.4917 23.3509 27.5178 23.3558C27.5439 23.3608 27.5687 23.3709 27.5908 23.3856C27.613 23.3999 27.6322 23.4185 27.6472 23.4402C27.6623 23.462 27.6729 23.4864 27.6785 23.5123C27.6841 23.5381 27.6845 23.5648 27.6798 23.5908C27.675 23.6168 27.6652 23.6416 27.6509 23.6638L27.2857 24.2313C27.6407 24.4136 27.9956 24.5968 28.3502 24.781L28.5403 23.9394C28.5461 23.9137 28.5569 23.8894 28.5721 23.868C28.5873 23.8465 28.6067 23.8283 28.629 23.8144C28.6513 23.8004 28.6762 23.7911 28.7022 23.7869C28.7282 23.7827 28.7547 23.7837 28.7803 23.7898C28.8061 23.7956 28.8305 23.8064 28.8521 23.8216C28.8738 23.8369 28.8922 23.8562 28.9063 23.8785C28.9205 23.9008 28.9301 23.9258 28.9346 23.9518C28.9391 23.9779 28.9385 24.0045 28.9327 24.0303L28.7172 24.9725C29.1599 25.2109 29.5817 25.4511 29.9816 25.6842L30.0602 25.7317L29.8402 23.9872C29.8336 23.9343 29.8481 23.8809 29.8804 23.8385C29.9128 23.7961 29.9604 23.768 30.0132 23.7603C30.0665 23.7539 30.1201 23.7688 30.1625 23.8017C30.2049 23.8346 30.2326 23.8829 30.2397 23.9361L30.4867 25.8879C30.488 25.9189 30.482 25.9499 30.4691 25.9782L30.5347 26.0173C30.7523 26.1502 30.9981 26.2299 31.2523 26.2499C31.5065 26.2698 31.7617 26.2294 31.9973 26.132C32.8675 25.7788 33.6515 25.2423 34.2959 24.5591C34.9402 23.8759 35.4299 23.0618 35.7316 22.1724C36.0074 21.359 36.1193 20.499 36.0609 19.6421C36.0024 18.7852 35.7746 17.9483 35.3908 17.1799C34.868 16.1242 34.068 15.2305 33.0763 14.5946C33.0402 14.5707 32.9992 14.5552 32.9563 14.5493C32.9133 14.5435 32.8697 14.5474 32.8285 14.5608C32.7873 14.5741 32.7497 14.5967 32.7184 14.6266C32.6872 14.6566 32.6631 14.6933 32.6479 14.7339L32.643 14.7592C32.0746 16.1986 31.1864 17.49 30.0456 18.5358C29.8784 18.6899 29.671 18.7937 29.4474 18.8352C29.2238 18.8766 28.993 18.8541 28.7816 18.7702C28.5979 18.6953 28.4351 18.5772 28.3068 18.4259C28.1085 18.1806 28.0118 17.8687 28.0365 17.5543C28.0612 17.2399 28.2054 16.9469 28.4394 16.7355C29.2894 15.9323 29.9482 14.9485 30.3672 13.8567C31.1336 11.9133 31.0986 9.74543 30.2702 7.82772C29.4417 5.91001 27.8871 4.39868 25.9468 3.6246C24.0034 2.85828 21.8356 2.89318 19.9179 3.72166C18.0002 4.55014 16.4888 6.1047 15.7147 8.04501C15.2925 9.09852 15.1051 10.2315 15.1655 11.3648C15.1821 11.6846 15.071 11.9978 14.8567 12.2357C14.6423 12.4736 14.3423 12.6165 14.0226 12.6332C13.7028 12.6498 13.3895 12.5387 13.1517 12.3244C12.9138 12.11 12.7708 11.81 12.7542 11.4902C12.6754 10.0101 12.9203 8.53053 13.4717 7.15467L13.475 7.13774C13.4921 7.09781 13.4999 7.05453 13.4978 7.01115C13.4958 6.96778 13.4839 6.92543 13.4632 6.88729C13.4424 6.84915 13.4133 6.8162 13.378 6.79093C13.3427 6.76566 13.3021 6.74872 13.2593 6.74138C12.0928 6.53025 10.8909 6.64284 9.78392 7.0669C8.98172 7.36903 8.24724 7.82691 7.62279 8.41416C6.99835 9.00142 6.49627 9.70644 6.14552 10.4886C5.76458 11.3408 5.57024 12.2647 5.57552 13.1981C5.58081 14.1316 5.78559 15.0532 6.17616 15.9011Z" fill="#040000"/>
<path d="M24.209 11.7741C24.0665 11.6848 23.943 11.5682 23.8455 11.4311C23.7481 11.294 23.6787 11.139 23.6412 10.975C23.6038 10.811 23.599 10.6413 23.6272 10.4755C23.6554 10.3096 23.7161 10.151 23.8057 10.0087L24.8686 8.30881C24.9579 8.16628 25.0744 8.04277 25.2115 7.94534C25.3487 7.84791 25.5037 7.77847 25.6676 7.741C25.8316 7.70353 26.0014 7.69879 26.1672 7.727C26.333 7.75522 26.4916 7.81585 26.634 7.90545C26.7765 7.99446 26.9 8.11072 26.9974 8.24757C27.0949 8.38441 27.1644 8.53915 27.2019 8.7029C27.2394 8.86666 27.2443 9.0362 27.2161 9.20183C27.188 9.36746 27.1274 9.5259 27.0379 9.66807L25.9722 11.3674C25.8832 11.5099 25.7669 11.6334 25.6301 11.731C25.4933 11.8285 25.3386 11.8982 25.1749 11.936C25.0111 11.9737 24.8416 11.9789 24.6758 11.9511C24.5101 11.9233 24.3515 11.8632 24.209 11.7741Z" fill="#040000"/>
<path d="M22.5622 6.29905C22.7269 6.33187 22.8836 6.39683 23.0233 6.49021C23.1629 6.58358 23.2828 6.70356 23.3761 6.84328C23.4694 6.98299 23.5343 7.13973 23.567 7.30452C23.5998 7.4693 23.5997 7.63892 23.5669 7.80369L23.1859 9.76213C23.153 9.92689 23.0881 10.0836 22.9947 10.2232C22.9013 10.3629 22.7814 10.4828 22.6416 10.5761C22.5019 10.6694 22.3452 10.7343 22.1804 10.767C22.0156 10.7997 21.846 10.7997 21.6812 10.7668C21.5165 10.734 21.3598 10.6691 21.2201 10.5757C21.0804 10.4823 20.9605 10.3623 20.8673 10.2226C20.774 10.0829 20.7091 9.92616 20.6764 9.76137C20.6436 9.59658 20.6437 9.42697 20.6765 9.2622L21.0575 7.30376C21.0904 7.139 21.1553 6.98231 21.2487 6.84265C21.3421 6.70298 21.462 6.58309 21.6018 6.48979C21.7415 6.39649 21.8982 6.33164 22.063 6.29891C22.2278 6.26618 22.3974 6.26622 22.5622 6.29905Z" fill="#040000"/>
<path d="M27.3701 12.7025C27.7364 12.8518 28.029 13.1394 28.1847 13.503C28.3404 13.8666 28.3465 14.2769 28.2018 14.645C28.0458 15.008 27.7546 15.296 27.3899 15.4481C27.0252 15.6002 26.6157 15.6044 26.2479 15.4598C25.8831 15.3073 25.5923 15.0183 25.4377 14.6544C25.283 14.2906 25.2767 13.8806 25.4202 13.5122C25.5724 13.1471 25.8629 12.857 26.2282 12.7053C26.5935 12.5536 27.004 12.5526 27.3701 12.7025Z" fill="#040000"/>
<path d="M16.8015 10.1367C16.868 9.95097 16.9711 9.78052 17.1049 9.63553C17.2387 9.49054 17.4003 9.37397 17.5801 9.29279C17.7599 9.2116 17.9542 9.16746 18.1514 9.16299C18.3486 9.15852 18.5447 9.19382 18.728 9.26679C18.9116 9.3353 19.0796 9.4398 19.2223 9.57413C19.365 9.70845 19.4794 9.86991 19.5589 10.049C19.6383 10.2282 19.6812 10.4214 19.685 10.6173C19.6888 10.8132 19.6534 11.0079 19.581 11.19C19.441 11.5519 19.1649 11.8446 18.8117 12.0053C18.4585 12.166 18.0564 12.1819 17.6916 12.0496C17.5067 11.9837 17.3366 11.8817 17.1915 11.7495C17.0463 11.6173 16.9289 11.4575 16.8461 11.2795C16.7632 11.1015 16.7166 10.9088 16.709 10.7126C16.7013 10.5164 16.7328 10.3206 16.8015 10.1367Z" fill="#040000"/>
<path d="M20.0881 11.8949C20.2603 11.8232 20.4514 11.811 20.6313 11.8603C20.8111 11.9096 20.9693 12.0176 21.0808 12.1671C21.3778 12.5563 21.7744 12.8581 22.2288 13.0407C22.6844 13.2202 23.1801 13.2731 23.6633 13.1938C23.8462 13.1591 24.0355 13.1865 24.2009 13.2718C24.3664 13.3571 24.4986 13.4952 24.5764 13.6643L24.5964 13.7121C24.6462 13.8256 24.6698 13.9489 24.6653 14.0727C24.6609 14.1966 24.6285 14.3178 24.5705 14.4274C24.5126 14.5369 24.4307 14.632 24.3308 14.7054C24.231 14.7788 24.1158 14.8287 23.994 14.8514C23.1894 14.9931 22.3614 14.91 21.601 14.6114C20.8443 14.3068 20.186 13.7998 19.6983 13.1458C19.6253 13.0454 19.5758 12.9298 19.5536 12.8076C19.5315 12.6854 19.5371 12.5598 19.5703 12.4401C19.6034 12.3205 19.6631 12.2098 19.745 12.1164C19.8269 12.023 19.9288 11.9493 20.0431 11.9008L20.0881 11.8949Z" fill="#040000"/>
<path d="M9.63757 25.929C9.96753 25.9511 10.2985 25.9054 10.6102 25.7948C10.9218 25.6842 11.2075 25.5109 11.4497 25.2858C11.7835 24.9683 12.0741 24.6083 12.314 24.2151C13.0079 23.1024 14.5905 22.6752 16.3334 23.1255L16.4153 23.1415C16.9568 23.2706 17.4876 23.4414 18.0028 23.6524C18.5226 23.8526 19.0262 24.0926 19.5091 24.3702L19.5832 24.4109C21.1699 25.2878 22.0314 26.6855 21.7698 27.9701C21.6757 28.4207 21.6412 28.8817 21.667 29.3413C21.6873 29.6722 21.7755 29.9954 21.9261 30.2908C22.0768 30.5861 22.2866 30.8473 22.5426 31.058C23.6344 31.9645 24.1817 32.7944 23.9502 33.382C23.4377 34.6764 19.227 34.2204 14.5455 32.3606C9.86397 30.5009 6.48964 27.9437 7.00495 26.6498C7.2528 26.0684 8.22187 25.8293 9.63757 25.929ZM11.9395 28.6994C13.0473 29.315 14.1939 29.858 15.3721 30.3249C16.5496 30.7956 17.7567 31.1889 18.9855 31.5023C19.0537 31.5187 19.1249 31.5178 19.1927 31.4996C19.2604 31.4814 19.3225 31.4465 19.3733 31.3981C19.424 31.3498 19.4619 31.2894 19.4833 31.2227C19.5048 31.1559 19.5092 31.0848 19.4961 31.0159C19.2313 29.9433 19.1901 28.8277 19.3751 27.7385C19.3929 27.6421 19.3896 27.5429 19.3657 27.4478C19.3418 27.3527 19.2977 27.2638 19.2364 27.1873C19.0126 26.9214 18.7389 26.7019 18.4307 26.5414L18.3566 26.5007C17.9629 26.2723 17.5516 26.0758 17.1267 25.9128C16.7058 25.7393 16.2716 25.5999 15.8283 25.4962L15.7464 25.4803C15.4117 25.3872 15.0623 25.359 14.717 25.3972C14.62 25.4119 14.5272 25.4469 14.4447 25.5C14.3622 25.5531 14.2918 25.6231 14.2383 25.7053C13.624 26.6216 12.8302 27.4037 11.9048 28.0043C11.8493 28.0451 11.8046 28.0991 11.775 28.1614C11.7454 28.2237 11.7317 28.2923 11.7351 28.3612C11.7386 28.4301 11.759 28.497 11.7947 28.556C11.8304 28.615 11.8801 28.6643 11.9395 28.6994Z" fill="#040000"/>
</svg>
