<svg width="61" height="6" viewBox="0 0 61 6" fill="none" xmlns="http://www.w3.org/2000/svg">
<path d="M4.66774 1.19815V0.238152H0.125742V1.19815H1.80574V5.44615H2.99374V1.19815H4.66774ZM10.2601 2.85415C10.2601 1.39015 9.30607 0.166152 7.69807 0.166152C6.05407 0.166152 5.13007 1.31215 5.13007 2.85415C5.13007 4.47415 6.21607 5.54215 7.69807 5.54215C9.21607 5.54215 10.2601 4.46815 10.2601 2.85415ZM8.97607 2.85415C8.97607 3.89815 8.49607 4.51615 7.66807 4.51615C6.93607 4.51615 6.35407 3.94615 6.35407 2.85415C6.35407 1.81615 6.89407 1.16815 7.67407 1.16815C8.48407 1.16815 8.97607 1.81615 8.97607 2.85415ZM10.8932 3.20215C10.8932 4.73815 11.6672 5.53615 13.1732 5.53615C14.7872 5.53615 15.5192 4.67815 15.5192 3.16015V0.238152H14.3432V3.19015C14.3432 4.09615 13.9472 4.52215 13.2272 4.52215C12.5792 4.52215 12.0692 4.14415 12.0692 3.20215V0.238152H10.8932V3.20215ZM20.7958 1.75615C20.5798 0.910152 19.7938 0.166152 18.5938 0.166152C17.1178 0.166152 16.1038 1.21015 16.1038 2.82415C16.1038 4.41415 17.0278 5.53615 18.6058 5.53615C19.8478 5.53615 20.6038 4.89415 20.8438 3.74815L19.7338 3.40015C19.6378 4.14415 19.2298 4.53415 18.6118 4.53415C17.9218 4.53415 17.3398 3.94015 17.3398 2.83015C17.3398 1.94815 17.7538 1.16815 18.5998 1.16815C19.1458 1.16815 19.5598 1.51615 19.6798 2.00815L20.7958 1.75615ZM26.0301 5.44615V0.238152H24.8601V2.32015H22.6041V0.238152H21.4401V5.44615H22.6041V3.32815H24.8601V5.44615H26.0301ZM32.2085 1.19815V0.238152H28.5065V5.44615H29.6825V3.38815H31.8845V2.44015H29.6825V1.19815H32.2085ZM37.7933 2.85415C37.7933 1.39015 36.8393 0.166152 35.2313 0.166152C33.5873 0.166152 32.6633 1.31215 32.6633 2.85415C32.6633 4.47415 33.7493 5.54215 35.2313 5.54215C36.7493 5.54215 37.7933 4.46815 37.7933 2.85415ZM36.5093 2.85415C36.5093 3.89815 36.0293 4.51615 35.2013 4.51615C34.4693 4.51615 33.8873 3.94615 33.8873 2.85415C33.8873 1.81615 34.4273 1.16815 35.2073 1.16815C36.0173 1.16815 36.5093 1.81615 36.5093 2.85415ZM43.0224 5.44015L41.4864 3.33415C42.4164 3.14215 42.7644 2.59615 42.7644 1.77415C42.7644 0.898152 42.0924 0.238152 40.7904 0.238152H38.4264V5.44615H39.6024V3.40015H40.2684L41.5344 5.44015H43.0224ZM40.5984 1.14415C41.2944 1.14415 41.5224 1.39015 41.5224 1.84015C41.5224 2.29615 41.2584 2.51815 40.5984 2.51815H39.6024V1.14415H40.5984ZM44.932 3.73015C45.124 4.93615 45.766 5.53615 46.954 5.53615C48.238 5.53615 48.826 4.81015 48.826 3.38215V0.238152H47.656V3.33415C47.656 4.21015 47.38 4.51615 46.882 4.51615C46.42 4.51615 46.096 4.25815 46.06 3.43015L44.932 3.73015ZM54.6038 2.85415C54.6038 1.39015 53.6498 0.166152 52.0418 0.166152C50.3978 0.166152 49.4738 1.31215 49.4738 2.85415C49.4738 4.47415 50.5598 5.54215 52.0418 5.54215C53.5598 5.54215 54.6038 4.46815 54.6038 2.85415ZM53.3198 2.85415C53.3198 3.89815 52.8398 4.51615 52.0118 4.51615C51.2798 4.51615 50.6978 3.94615 50.6978 2.85415C50.6978 1.81615 51.2378 1.16815 52.0178 1.16815C52.8278 1.16815 53.3198 1.81615 53.3198 2.85415ZM60.133 0.238152H58.783L57.817 1.97215C57.745 2.09815 57.637 2.29015 57.535 2.47615H57.529C57.433 2.30215 57.337 2.13415 57.229 1.96015L56.191 0.238152H54.853L56.887 3.38815V5.44615H58.069V3.37015L60.133 0.238152Z" fill="white"/>
</svg>
